<?xml version="1.0" encoding="UTF-8" standalone="no"?>
<svg
   width="103.38mm"
   height="44.867mm"
   version="1.1"
   viewBox="0 0 103.38 44.867"
   xml:space="preserve"
   id="svg3838"
   sodipodi:docname="logo-white.svg"
   inkscape:version="1.2.1 (1:1.2.1+202210291243+9c6d41e410)"
   xmlns:inkscape="http://www.inkscape.org/namespaces/inkscape"
   xmlns:sodipodi="http://sodipodi.sourceforge.net/DTD/sodipodi-0.dtd"
   xmlns="http://www.w3.org/2000/svg"
   xmlns:svg="http://www.w3.org/2000/svg"><defs
     id="defs3842" /><sodipodi:namedview
     id="namedview3840"
     pagecolor="#b7b7ad"
     bordercolor="#666666"
     borderopacity="1.0"
     inkscape:showpageshadow="2"
     inkscape:pageopacity="0"
     inkscape:pagecheckerboard="0"
     inkscape:deskcolor="#d1d1d1"
     inkscape:document-units="mm"
     showgrid="false"
     inkscape:zoom="3.3271265"
     inkscape:cx="195.36377"
     inkscape:cy="85.208662"
     inkscape:window-width="2508"
     inkscape:window-height="1349"
     inkscape:window-x="0"
     inkscape:window-y="0"
     inkscape:window-maximized="1"
     inkscape:current-layer="svg3838" /><g
     transform="translate(-21.749 -13.794)"
     id="g3836"><path
       d="m79.273 18.148c0.9048 0 3.1035-0.42101 3.2262 0.87445 0.19115 2.0174-2.5918 0.42909-3.1258 1.7502-0.31489 0.77896-0.10039 1.9663-0.10039 2.7969 0 2.0341-0.0857 4.0891 4e-3 6.1212 0.0296 0.67289 0.24231 1.4943 1.0459 1.5633 0.88206 0.07555 2.5734-0.98944 2.6182 0.71032 0.0379 1.4399-2.4022 1.9287-3.4926 2.0034-0.55178 0.03789-1.1168 0.01912-1.6615-0.07267-2.432-0.40986-2.9731-2.2915-2.9731-4.4666v-5.5965c0-0.88818 0.14874-1.9275-0.0301-2.7982-0.29758-1.4488-2.8476-0.27948-2.6585-2.0112 0.12584-1.1521 1.8923-0.87454 2.6886-0.87454 0-0.68349-0.1978-1.739 0.12741-2.3575 0.36867-0.70123 1.5606-1.0445 2.2336-1.381 0.4423-0.22114 1.3247-0.88596 1.8098-0.49343 0.32634 0.26408 0.28822 0.79704 0.28883 1.1714v3.0606m-45.384 1.2242v0.17489c3.0656 1.1876 2.1386 5.7557-0.08745 7.1968-0.88014 0.56979-2.11 0.87436-3.148 0.60669-0.56778-0.14638-1.1886-0.5704-1.011-1.2448 0.14105-0.53621 0.8031-0.7362 1.1824-1.076 0.64823-0.58081 1.0605-1.5472 0.92692-2.4221-0.40662-2.6636-3.9187-3.2356-5.4148-1.1368-0.84408 1.1841-0.51384 2.8975 0.39755 3.935 2.4791 2.8223 6.8292 3.821 8.6506 7.258 1.5164 2.8612 0.59183 7.2338-2.9828 7.8627-0.79592 0.14-2.6191 0.16134-2.6046-1.042 0.0078-0.65409 0.88582-0.99442 1.2917-1.4004 0.90654-0.9068 1.1273-2.2723 0.49546-3.409-0.67464-1.2137-2.0009-2.0173-3.1175-2.776-3.0271-2.0568-7.1698-4.513-6.6594-8.7668 0.08691-0.7244 0.26544-1.4526 0.61698-2.0987 1.2313-2.2629 3.9975-3.3133 6.4796-3.2307 0.77371 0.02576 2.1122 0.55885 2.8197 0.31685 1.1658-0.39875 0.42909-2.4795 2.2521-2.2191 1.9783 0.28263 1.5304 2.9954-0.08744 3.4714m26.234 0.17489c0.87139-0.61325 1.555-1.3535 2.6234-1.6476 0.71031-0.19556 1.3752-0.17074 2.0987-0.20047 0.53332-0.02193 1.0523 0.01942 1.574 0.13637 3.9548 0.88624 3.2355 5.4538 3.2355 8.5324v2.6234c0 0.64928-0.13222 1.5315 0.31935 2.0699 0.4283 0.51068 2.9215 0.87086 1.7414 2.0908-0.43837 0.45323-1.3186 0.29897-1.8858 0.29897h-4.9844c-0.63205 0-1.5771 0.08788-1.785-0.69991-0.33124-1.2548 1.6142-1.0865 1.9693-2.011 0.27221-0.7091 0.0781-1.7831 0.0781-2.5358 0-1.8926 0.36849-4.1982-0.0449-6.0337-0.19693-0.87428-0.75912-1.5691-1.704-1.6283-1.2308-0.07721-2.3402 0.86771-2.7372 1.9781-0.6331 1.771-0.41081 3.8357-0.41081 5.6839 0 0.81324-0.12627 1.7526 0.13405 2.5358 0.25709 0.77345 3.051 1.1765 1.8322 2.4037-0.4319 0.43487-1.3267 0.3072-1.8788 0.3072h-4.8969c-0.60949 0-1.562 0.14385-1.8855-0.52852-0.7069-1.4688 1.802-1.2064 2.1134-2.1824 0.28087-0.88058 0.1219-1.9729 0.1219-2.8856 0-1.6438 0.20881-3.4454-0.0262-5.0718-0.0594-0.41073-0.1985-0.80694-0.58755-1.0094-0.63878-0.33247-2.0254-0.14909-1.6756-1.3513 0.25516-0.87707 1.7144-1.1513 2.4643-1.4366 0.9605-0.36541 1.9067-0.80944 2.8857-1.1219 0.38362-0.12245 0.8734-0.24853 1.1594 0.12961 0.28786 0.38073 0.15232 1.1032 0.15232 1.554m-15.566-1.7239c1.0876-0.13356 2.2709-0.04488 3.3229 0.25087 0.83667 0.2352 1.706 0.65102 2.361 1.2268 1.084 0.9529 2.2447 2.9176 1.3143 4.3558-0.43496 0.67237-1.3377 1.0394-2.0139 1.424-1.4482 0.82382-2.9076 1.9091-4.4597 2.5177-0.73725 0.28918-1.5965-0.0072-1.7-0.88084-0.08474-0.71451 0.57661-1.0872 1.0879-1.4282 0.99845-0.66607 3.0839-1.515 3.0492-2.944-0.0429-1.7632-2.0177-2.8186-3.3989-1.6428-2.8777 2.4497-2.6067 10.083 1.8363 10.611 1.2209 0.14498 2.5551-0.46005 3.5852-1.0479 0.52405-0.29915 1.3102-0.83712 1.9146-0.42245 1.3621 0.93461-0.46705 2.4656-1.3025 2.8846-3.5246 1.7677-8.5811 1.5186-11.04-1.9002-3.5115-4.8817-0.57591-12.265 5.4438-13.004m76.165 13.922c0.59025-0.062 0.69344 0.56096 0.69956 1.0057 0.01 0.78674 0 1.5742 0 2.361 0 0.27116-0.0717 0.69702 0.13991 0.90916 0.78351 0.78316 2.967-0.74372 3.1533 1.0146 0.19326 1.8264-2.6382 0.51086-3.1445 1.6628-0.34803 0.79243-0.14866 1.9504-0.14866 2.7969 0 2.0256-0.13117 4.1007 8e-3 6.1212 0.0463 0.67822 0.21511 1.4784 1.0161 1.5769 0.92517 0.11367 2.4187-0.99085 2.6688 0.60922 0.21424 1.3742-2.0077 1.9063-2.9932 2.0603-1.7585 0.27466-4.0356-0.0599-4.82-1.8854-0.48182-1.1213-0.33928-2.4834-0.33928-3.6727 0-2.3512 0.11542-4.7352-4e-3 -7.0831-0.0874-1.7211-2.3514-0.48786-2.5997-1.8367-0.35503-1.9265 1.7742-0.67534 2.4633-1.3641 0.4416-0.44151-4e-3 -1.5644 0.22823-2.1333 0.35591-0.87454 1.8355-1.2896 2.6225-1.6831 0.31829-0.15932 0.68819-0.42149 1.0493-0.45944m-94.79 0.24362c0.74081-0.08736 2.2272 0.16038 2.0771 1.1992-0.08892 0.61544-0.88887 0.9131-1.2887 1.3131-0.89413 0.89448-1.1006 2.1894-0.52642 3.3216 0.68419 1.3491 2.1999 2.2155 3.4108 3.0317 3.1037 2.092 6.9892 4.57 6.372 8.8608-0.11753 0.81674-0.40164 1.5815-0.85119 2.2736-0.56542 0.87051-1.3633 1.4906-2.2854 1.9451-1.1231 0.55353-2.3405 0.7864-3.5852 0.84017-3.8894 0.16807-9.4641-3.4952-6.4527-7.7697 0.84651-1.2015 2.2055-1.8427 3.6544-1.8363 0.56003 2e-3 1.3167 0.0874 1.6337 0.62821 0.53712 0.91633-0.78608 1.4738-1.2801 1.9951-0.97411 1.028-0.99814 2.7157 0.01242 3.7448 1.3445 1.3694 3.8191 1.098 4.7628-0.5969 0.69886-1.255 0.37881-2.8341-0.5851-3.8476-2.4397-2.5652-6.4983-3.7135-8.3516-6.8207-1.8985-3.1831-0.78003-7.8029 3.2833-8.2824m19.038 3.6849c1.0661-0.12697 2.2544 0.03926 3.2604 0.40487 0.79278 0.28813 1.5475 0.68636 2.1848 1.2457 1.0227 0.89762 2.0273 2.9591 1.1163 4.2507-0.48095 0.68198-1.3738 1.0408-2.0769 1.4438-1.3974 0.80117-2.8 1.8294-4.2848 2.4528-0.75264 0.31603-1.6281 0.0413-1.7866-0.82819-0.13685-0.75159 0.56236-1.1094 1.087-1.4574 1.0371-0.68811 3.1947-1.5831 3.034-3.0897-0.19719-1.8488-2.1856-2.6284-3.5508-1.3728-0.5962 0.54837-0.9493 1.3164-1.2011 2.0724-0.89124 2.6759-0.67455 7.8938 2.9421 8.3695 1.3057 0.17166 2.5422-0.32093 3.6727-0.91748 0.58632-0.30938 1.4002-0.94825 2.0822-0.51916 1.5399 0.96907-0.75037 2.6234-1.5576 3.0134-1.2383 0.59804-2.7314 0.97318-4.1099 0.90847-2.045-0.096-3.9897-0.34138-5.5965-1.7756-3.1382-2.801-3.4046-8.3364-0.67333-11.528 1.4215-1.6608 3.3391-2.4214 5.4579-2.6737m15.065 1.7993c0.73533-0.51592 1.3342-1.1029 2.1861-1.447 2.2128-0.89369 5.3658-0.50508 6.6458 1.7093 0.61447-0.61448 1.2159-1.1874 2.0112-1.5635 2.255-1.0663 6.1402-0.80791 7.2164 1.8259 0.43181 1.0568 0.30388 2.2142 0.30388 3.3229 0 1.9219-0.0458 3.8501 1e-3 5.7714 0.0131 0.53648-0.0364 1.4796 0.30597 1.9143 0.39193 0.49774 3.1474 0.80799 1.7715 2.0716-0.76506 0.70253-2.9353 0.29898-3.9151 0.29898-1.1761 0-2.5162 0.17812-3.6727-0.0409-0.66388-0.12566-1.077-0.67919-0.78621-1.3544 0.22342-0.51881 0.7995-0.4611 1.2221-0.71119 0.44273-0.26208 0.5878-0.72868 0.61002-1.2164 0.11149-2.4539 0.29443-5.2608-0.0219-7.6952-0.13196-1.0152-0.81998-2.037-1.986-1.8797-3.2677 0.44081-2.6234 5.3425-2.6234 7.6511 0 0.81167-0.0764 1.7482 0.15076 2.5358 0.0652 0.22587 0.18705 0.4123 0.37899 0.55073 0.33587 0.24231 0.77957 0.1992 1.1222 0.41912 0.49083 0.31498 0.52432 1.3228 0 1.6258-0.75903 0.43863-2.4468 0.11526-3.3134 0.11526-1.2471 0-2.6141 0.15801-3.8476-0.0263-0.64901-0.097-1.0712-0.61885-0.80956-1.284 0.3224-0.81954 1.4936-0.54864 1.7886-1.4879 0.25839-0.82285 0.0703-1.9405 0.0703-2.7982 0-1.7486 0.17156-3.5961-0.0152-5.3341-0.0877-0.81692-0.49127-1.7339-1.3839-1.895-1.2787-0.23077-2.3884 0.67534-2.8461 1.8076-0.70446 1.7426-0.3894 3.9295-0.3894 5.7714 0 0.755-0.15932 1.7199 0.0501 2.4485 0.23016 0.80109 2.9116 1.2869 1.5914 2.4993-0.49432 0.45392-1.3769 0.29897-1.9913 0.29897-1.7604 0-3.5798 0.13362-5.3342-8e-3 -0.65304-0.0528-1.3144-0.47351-1.0462-1.2158 0.33623-0.93015 1.6044-0.4896 2.0877-1.3133 0.30378-0.51776 0.18276-1.2595 0.18276-1.835v-3.935c0-0.85093 0.25359-2.2082-0.18714-2.9693-0.41658-0.71941-2.891-0.55204-1.9341-2.0113 0.28892-0.44047 0.87218-0.58842 1.3342-0.77328 1.0749-0.42997 2.151-0.86474 3.2355-1.2696 0.41414-0.1546 1.0323-0.56332 1.477-0.31909 0.54015 0.29653 0.35932 1.2358 0.35932 1.7461m30.781 12.767c-1.6945 1.6594-4.2933 2.0578-6.4709 1.0983-2.4989-1.1009-3.4479-4.1949-2.0055-6.5199 1.053-1.6974 2.9552-2.7132 4.8912-3.0532 0.80939-0.1421 2.1696-0.22631 2.1546 0.95455-0.0134 1.0667-1.1757 1.2783-1.8923 1.7459-0.89868 0.58641-1.4427 1.5547-1.3957 2.6263 0.0896 2.0416 2.7568 2.9129 3.7571 0.9619 0.48611-0.94817 0.43688-2.1986 0.43688-3.2355 0-1.293 0.11806-2.6526-0.0504-3.935-0.10826-0.82487-0.0721-1.5799-0.82539-2.1303-1.855-1.3555-3.7965 0.58728-5.5952 0.8024-0.8755 0.10476-1.5413-0.71531-1.2113-1.5577 0.34174-0.87226 1.627-1.3202 2.4355-1.6244 2.3817-0.89605 6.3594-1.2943 8.3946 0.58308 1.2597 1.1621 1.3118 2.6715 1.3118 4.2767 0 2.3082-0.381 4.989 0.0288 7.2579 0.23592 1.306 2.6614 0.65217 2.2068 2.2723-0.20926 0.74582-1.2054 0.61343-1.7984 0.61343h-2.8857c-0.35773 0-0.90024 0.0983-1.1998-0.14018-0.2974-0.23672-0.28385-0.65418-0.28673-0.99661m13.729-14.454c2.5685 0.03418 5.2476 0.18888 7.0568 2.2989 3.1708 3.6976 2.821 12.077-2.5971 13.604-1.2496 0.35231-2.7487 0.33045-3.935-0.22972-0.67525-0.31882-1.1991-1.2018-0.68662-1.8993 0.44824-0.61003 1.6008-0.0886 2.2606-0.24083 1.3589-0.31358 1.9002-1.876 2.0733-3.1018 0.29907-2.1086 0.35765-4.7435-0.75115-6.6458-0.70717-1.214-2.1861-1.9702-3.5079-1.2325-1.3796 0.76995-1.0497 2.7964-1.0497 4.1182v9.0943c0 1.3266-0.29399 3.1105 0.17769 4.3719 0.42279 1.1303 1.9211 0.25831 2.5323 1.0797 0.53814 0.72326-0.0486 1.4111-0.78622 1.5178-2.0716 0.29941-4.3767 0.0262-6.4709 0.0262-0.64027 0-1.8219 0.20042-2.2728-0.38423-1.0944-1.4195 1.401-1.399 1.9033-1.8398 0.45113-0.39578 0.45419-1.2442 0.45681-1.7984 0.0222-4.6047 0.0225-9.2116 0-13.816-2e-3 -0.41213-0.0174-0.88206-0.36936-1.1628-0.58773-0.46879-2.0966-0.36018-1.4512-1.6351 0.34278-0.67726 1.2428-0.94248 1.9081-1.1663 1.7374-0.58422 3.6701-0.98262 5.5091-0.95814z"
       fill="#fff"
       id="path3834" /></g></svg>
