<?xml version="1.0" encoding="UTF-8"?><svg id="Layer_1" xmlns="http://www.w3.org/2000/svg" viewBox="0 0 283.46 283.46"><defs><style>.cls-1{fill:#610345;}</style></defs><path class="cls-1" d="M135.47,36.89L38.76,84.5c-1.94,.95-3.17,2.93-3.17,5.09V242.36c0,3.13,2.54,5.67,5.67,5.67h27.77c3.13,0,5.67-2.54,5.67-5.67v-97.8c0-1.57,1.27-2.83,2.83-2.83h46.08c1.57,0,2.83,1.27,2.83,2.83v97.8c0,3.13,2.54,5.67,5.67,5.67h110.07c3.13,0,5.67-2.54,5.67-5.67V89.59c0-2.16-1.23-4.13-3.17-5.09l-96.71-47.61c-3.95-1.94-8.57-1.94-12.52,0Zm74.81,156.76h-46.08c-1.57,0-2.83-1.27-2.83-2.83v-46.08c0-1.57,1.27-2.83,2.83-2.83h46.08c1.57,0,2.83,1.27,2.83,2.83v46.08c0,1.57-1.27,2.83-2.83,2.83Z"/></svg>