<?xml version="1.0" encoding="UTF-8" standalone="no"?>
<svg
   viewBox="0 0 283.46 283.46"
   xmlns="http://www.w3.org/2000/svg">
  <defs
     id="defs1">
    <style
       id="style1">.cls-1{fill:#1d1d1b;}</style>
  </defs>
  <path
     class="cls-1"
     d="m 247.86138,142.49312 c 0,-12.99405 -2.51885,-24.98856 -7.56987,-36.01018 -0.0933,-0.1999 -0.19991,-0.39981 -0.2932,-0.59972 -1.47932,-3.47841 -3.30515,-6.78356 -5.49082,-9.888805 -4.27804,-6.610305 -9.46233,-12.50094 -15.57953,-17.671905 -0.74632,-0.62638 -1.50597,-1.226105 -2.27895,-1.82583 6.25047,-2.478865 11.04827,-5.943944 14.36675,-10.381912 3.78493,-5.037692 5.6774,-11.168217 5.6774,-18.378248 0,-7.210031 -2.07905,-12.79414 -6.22382,-16.765654 -4.14476,-3.958187 -9.82216,-5.943944 -17.03219,-5.943944 -6.13053,0 -10.72842,1.532631 -13.78036,4.597894 -3.06526,3.065262 -5.31756,8.569408 -6.7569,16.485782 -1.55929,7.476575 -4.46463,11.714634 -8.71601,12.727503 -1.0262,0.23989 -2.1057,0.133273 -3.11857,-0.159926 -11.48807,-3.31848 -24.00234,-4.997711 -37.56946,-4.997711 -0.59973,0 -1.19945,0.02665 -1.79918,0.02665 -0.59972,0 -1.19945,-0.02665 -1.78585,-0.02665 -14.08688,0 -27.04094,1.812503 -38.88885,5.3842 -1.186123,0.359835 -2.385574,0.719671 -3.55837,1.119487 -11.767943,3.984842 -21.989928,9.435679 -30.705935,16.312529 -0.759652,0.599725 -1.532632,1.19945 -2.278956,1.82583 -6.117198,5.170965 -11.288163,11.0616 -15.566204,17.671905 -2.172338,3.105245 -3.998168,6.410395 -5.490818,9.902135 -0.09329,0.1999 -0.199908,0.39981 -0.293199,0.59972 -5.05102,11.00829 -7.569866,23.01613 -7.569866,36.01017 0,0.53309 0.02665,1.06618 0.03998,1.58594 0,0.45313 -0.03998,0.90626 -0.03998,1.35938 0,50.6568 47.511571,91.73132 106.124728,91.73132 58.61315,0 106.12472,-41.07452 106.12472,-91.73132 0,-0.45312 -0.0267,-0.90625 -0.04,-1.35938 0,-0.53308 0.04,-1.05285 0.04,-1.58594 z m -106.12473,63.39762 c -33.3847,0 -60.438979,-27.0676 -60.438979,-60.43898 0,-33.37138 27.067599,-60.438981 60.438979,-60.438981 33.37139,0 60.43899,27.067601 60.43899,60.438981 0,33.38471 -27.0676,60.43898 -60.43899,60.43898 z"
     id="path1"
     style="stroke-width:1.33272" />
  <circle
     class="cls-1"
     cx="141.73665"
     cy="145.26518"
     r="30.226156"
     id="circle1"
     style="stroke-width:1.33272" />
</svg>
