<?xml version="1.0" encoding="UTF-8"?><svg id="Layer_1" xmlns="http://www.w3.org/2000/svg" viewBox="0 0 283.46 283.46"><defs><style>.cls-1{fill:#610345;}</style></defs><path class="cls-1" d="M211.04,36.55c-1.17-1.49-3.37-1.49-4.53,.01-10.11,13.16-51.01,26.45-51.01,49.64,0,11.22,4.29,18.82,11.47,23.86,1.54,1.08,2.5,2.79,2.5,4.67v27.99c0,1.05-1.1,1.74-2.04,1.27l-23.19-11.41c-1.58-.78-3.43-.78-5.01,0l-23.18,11.41c-.94,.46-2.04-.22-2.04-1.27v-27.47c0-1.28-.28-2.54-.84-3.69L77.27,37.02c-1.04-2.11-4.05-2.11-5.09,0L36.28,111.55c-.56,1.15-.84,2.42-.84,3.7v24.09s0,0,0,0v103.02c0,3.13,2.54,5.67,5.67,5.67H242.36c3.13,0,5.67-2.54,5.67-5.67V114.73c0-1.88,.96-3.59,2.5-4.67,7.18-5.03,11.47-12.63,11.47-23.86,0-23.16-40.77-36.63-50.96-49.66Zm-55.54,141.55v21.53c0,1.57-1.27,2.83-2.83,2.83h-21.86c-1.57,0-2.83-1.27-2.83-2.83v-21.53c0-7.6,6.16-13.76,13.76-13.76h0c7.6,0,13.76,6.16,13.76,13.76Z"/></svg>