<?xml version="1.0" encoding="UTF-8"?><svg id="Layer_1" xmlns="http://www.w3.org/2000/svg" viewBox="0 0 283.46 283.46"><defs><style>.cls-1{fill:#610345;}</style></defs><path class="cls-1" d="M245.66,76.14l-30.88-15.2c-1.17-.58-2.46-.87-3.76-.87h-24.68s-30.04,0-30.04,0c-1.57,0-2.83-1.27-2.83-2.83v-8.56c0-6.94-5.33-12.91-12.26-13.23-7.4-.35-13.51,5.55-13.51,12.87v8.92c0,1.57-1.27,2.83-2.83,2.83h-10.3c-2.35,0-4.25,1.9-4.25,4.25v31.27c0,2.35,1.9,4.25,4.25,4.25h10.3c1.57,0,2.83,1.27,2.83,2.83v14.23c0,1.57-1.27,2.83-2.83,2.83h-27.73s-24.68,0-24.68,0c-1.3,0-2.59,.3-3.76,.87l-30.88,15.2c-3.17,1.56-3.17,6.07,0,7.63l30.88,15.2c1.17,.58,2.46,.88,3.76,.87h10.22s0,0,0,0h42.2c1.57,0,2.83,1.27,2.83,2.83v62.97c0,2.1-.07,3.81-.21,5.13-.14,1.33-.35,2.41-.63,3.25-.28,.84-.7,1.47-1.26,1.89-.56,.42-1.33,.77-2.3,1.05l-3.77,1.05c-.98,.28-1.71,.87-2.2,1.78-.49,.91-.73,1.92-.73,3.04,0,1.96,.49,3.32,1.47,4.08,.98,.77,2.65,1.22,5.03,1.36l3.77,.21h31.84c5.45,0,8.17-1.81,8.17-5.45,0-2.93-1.75-4.75-5.24-5.45-1.96-.28-3.49-.59-4.61-.94-1.12-.35-1.92-.94-2.41-1.78-.49-.84-.8-2.02-.94-3.56-.14-1.54-.21-3.63-.21-6.28v-62.35c0-1.57,1.27-2.83,2.83-2.83h12.61c2.35,0,4.25-1.9,4.25-4.25v-31.27c0-2.35-1.9-4.25-4.25-4.25h-12.61c-1.57,0-2.83-1.27-2.83-2.83v-14.23c0-1.57,1.27-2.83,2.83-2.83h44.5s10.22,0,10.22,0c1.3,0,2.59-.3,3.76-.87l30.88-15.2c3.17-1.56,3.17-6.07,0-7.63Z"/></svg>