<?xml version="1.0" encoding="UTF-8"?><svg id="Layer_1" xmlns="http://www.w3.org/2000/svg" viewBox="0 0 283.46 283.46"><defs><style>.cls-1{fill:#610345;}</style></defs><path class="cls-1" d="M174.68,35.42H109.11c-1.74,0-3.45,.4-5.01,1.17l-63.76,31.39c-2.91,1.43-4.75,4.39-4.75,7.63l-.24,166.63c0,3.13,2.54,5.67,5.67,5.67H110.12c3.13,0,5.67-2.54,5.67-5.67v-80.36c0-1.57,1.27-2.83,2.83-2.83h46.08c1.57,0,2.83,1.27,2.83,2.83v80.36c0,3.13,2.54,5.67,5.67,5.67h69.09c3.13,0,5.67-2.54,5.67-5.67l.24-166.63c0-3.24-1.84-6.2-4.75-7.63l-63.76-31.39c-1.56-.77-3.27-1.17-5.01-1.17ZM94.61,194.28c0,1.57-1.27,2.83-2.83,2.83H59.37c-1.57,0-2.83-1.27-2.83-2.83v-32.4c0-1.57,1.27-2.83,2.83-2.83h32.4c1.57,0,2.83,1.27,2.83,2.83v32.4Zm73.16-91.01c0,1.57-1.27,2.83-2.83,2.83h-11.67c-1.57,0-2.83,1.27-2.83,2.83v11.52c0,1.57-1.27,2.83-2.83,2.83h-11.52c-1.57,0-2.83-1.27-2.83-2.83v-11.52c0-1.57-1.27-2.83-2.83-2.83h-11.55c-1.57,0-2.83-1.27-2.83-2.83v-11.52c0-1.57,1.27-2.83,2.83-2.83h11.55c1.57,0,2.83-1.27,2.83-2.83v-11.7c0-1.57,1.27-2.83,2.83-2.83h11.52c1.57,0,2.83,1.27,2.83,2.83v11.7c0,1.57,1.27,2.83,2.83,2.83h11.67c1.57,0,2.83,1.27,2.83,2.83v11.52Zm59.01,91.01c0,1.57-1.27,2.83-2.83,2.83h-32.4c-1.57,0-2.83-1.27-2.83-2.83v-32.4c0-1.57,1.27-2.83,2.83-2.83h32.4c1.57,0,2.83,1.27,2.83,2.83v32.4Z"/></svg>