<?xml version="1.0" encoding="UTF-8"?><svg id="Layer_1" xmlns="http://www.w3.org/2000/svg" viewBox="0 0 283.46 283.46"><defs><style>.cls-1{fill:#610345;}</style></defs><path class="cls-1" d="M61.56,243.6c0-44.5,36.24-80.53,80.81-80.2,44.22,.33,79.6,36.99,79.6,81.21v.59c0,1.57,1.27,2.83,2.83,2.83h17.56c3.13,0,5.67-2.54,5.67-5.67l-.05-151.1c0-2.16-1.23-4.13-3.17-5.08l-99.33-48.9c-2.37-1.17-5.14-1.17-7.51,0L38.65,86.18c-1.94,.95-3.16,2.93-3.17,5.08l-.05,151.1c0,3.13,2.54,5.67,5.67,5.67h17.62c1.57,0,2.83-1.26,2.83-2.83,0-3.58,0,2.19,0-1.6ZM218.54,85.9l16.5,8.12c.97,.48,1.58,1.46,1.58,2.54v26.22c0,1.57-1.27,2.83-2.83,2.83h-16.5c-1.57,0-2.83-1.27-2.83-2.83v-34.34c0-2.1,2.2-3.47,4.09-2.54Zm-33.52-16.5l16.5,8.12c.97,.48,1.58,1.46,1.58,2.54v42.72c0,1.57-1.27,2.83-2.83,2.83h-16.5c-1.57,0-2.83-1.27-2.83-2.83v-50.84c0-2.1,2.2-3.47,4.09-2.54Zm-37.61-13.96c0-2.1,2.2-3.47,4.09-2.54l18.41,9.06h-.33v60.83c0,1.57-1.27,2.83-2.83,2.83h-16.5c-1.57,0-2.83-1.27-2.83-2.83V55.44Zm-31.94,5.58l16.5-8.12c1.88-.93,4.09,.44,4.09,2.54V122.78c0,1.57-1.27,2.83-2.83,2.83h-16.5c-1.57,0-2.83-1.27-2.83-2.83V63.56c0-1.08,.61-2.07,1.58-2.54Zm-33.52,16.5l16.5-8.12c1.88-.93,4.09,.44,4.09,2.54v50.84c0,1.57-1.27,2.83-2.83,2.83h-16.5c-1.57,0-2.83-1.27-2.83-2.83v-42.72c0-1.08,.61-2.07,1.58-2.54Zm-33.52,16.5l16.5-8.12c1.88-.93,4.09,.44,4.09,2.54v34.34c0,1.57-1.27,2.83-2.83,2.83h-16.5c-1.57,0-2.83-1.27-2.83-2.83v-26.22c0-1.08,.61-2.07,1.58-2.54Z"/></svg>