<?xml version="1.0" encoding="UTF-8" standalone="no"?>
<svg
   id="Layer_1"
   viewBox="0 0 283.46 283.46"
   version="1.1"
   sodipodi:docname="GentGemapt_Straat.svg"
   inkscape:version="1.3.1 (9b9bdc1480, 2023-11-25, custom)"
   xmlns:inkscape="http://www.inkscape.org/namespaces/inkscape"
   xmlns:sodipodi="http://sodipodi.sourceforge.net/DTD/sodipodi-0.dtd"
   xmlns="http://www.w3.org/2000/svg"
   xmlns:svg="http://www.w3.org/2000/svg">
  <sodipodi:namedview
     id="namedview1"
     pagecolor="#ffffff"
     bordercolor="#000000"
     borderopacity="0.25"
     inkscape:showpageshadow="2"
     inkscape:pageopacity="0.0"
     inkscape:pagecheckerboard="0"
     inkscape:deskcolor="#d1d1d1"
     showgrid="false"
     showguides="true"
     inkscape:zoom="2.0743668"
     inkscape:cx="337.45237"
     inkscape:cy="136.42717"
     inkscape:window-width="2504"
     inkscape:window-height="1376"
     inkscape:window-x="0"
     inkscape:window-y="0"
     inkscape:window-maximized="1"
     inkscape:current-layer="Layer_1">
    <sodipodi:guide
       position="828.08404,627.85727"
       orientation="1,0"
       id="guide1"
       inkscape:locked="false" />
  </sodipodi:namedview>
  <defs
     id="defs1">
    <style
       id="style1">.cls-1{fill:#610345;}</style>
  </defs>
  <path
     id="path1"
     class="cls-1"
     d="M 41.060547 35.390625 C 37.930553 35.390625 35.390625 37.930553 35.390625 41.060547 L 35.390625 242.35938 C 35.390625 245.48936 37.930553 248.0293 41.060547 248.0293 L 59.425781 248.0293 L 59.425781 35.390625 L 41.060547 35.390625 z M 63.285156 35.390625 L 63.285156 248.0293 L 134.30273 248.0293 C 135.87273 248.0293 137.13281 246.75922 137.13281 245.19922 L 137.13281 230.0293 C 137.13281 228.4593 138.40289 227.19922 139.96289 227.19922 L 141.50195 227.19922 C 143.07195 227.19922 144.33203 228.4693 144.33203 230.0293 L 144.33203 245.19922 C 144.33203 246.76922 145.60211 248.0293 147.16211 248.0293 L 218.75195 248.0293 L 218.75195 35.400391 C 194.88867 35.420705 171.02508 35.429688 147.16211 35.429688 C 145.59211 35.429688 144.33203 36.699768 144.33203 38.259766 L 144.33203 53.429688 C 144.33203 54.999684 143.06195 56.259766 141.50195 56.259766 L 139.96289 56.259766 C 138.39289 56.259766 137.13281 54.989684 137.13281 53.429688 L 137.13281 38.220703 C 137.13281 36.650707 135.86273 35.390625 134.30273 35.390625 L 63.285156 35.390625 z M 242.21094 35.390625 C 235.67783 35.403754 229.14452 35.391826 222.61133 35.398438 L 222.61133 248.0293 L 242.21094 248.0293 C 245.34092 248.0293 247.88086 245.48936 247.88086 242.35938 L 247.88086 41.060547 C 247.88086 37.930553 245.34092 35.390625 242.21094 35.390625 z M 139.95312 68.269531 L 141.49219 68.269531 C 143.06219 68.269531 144.32227 69.539613 144.32227 71.099609 L 144.32227 93.160156 C 144.32227 94.730154 143.05219 95.990234 141.49219 95.990234 L 139.95312 95.990234 C 138.38314 95.990234 137.12305 94.720154 137.12305 93.160156 L 137.12305 71.099609 C 137.12305 69.529613 138.39314 68.269531 139.95312 68.269531 z M 139.94336 108 L 141.48242 108 C 143.05242 108 144.3125 109.27008 144.3125 110.83008 L 144.3125 132.89062 C 144.3125 134.46062 143.04242 135.7207 141.48242 135.7207 L 139.94336 135.7207 C 138.37336 135.7207 137.11328 134.45062 137.11328 132.89062 L 137.11328 110.83008 C 137.11328 109.26008 138.38336 108 139.94336 108 z M 139.95312 147.73047 L 141.49219 147.73047 C 143.06219 147.73047 144.32227 149.00055 144.32227 150.56055 L 144.32227 172.61914 C 144.32227 174.18914 143.05219 175.44922 141.49219 175.44922 L 139.95312 175.44922 C 138.38314 175.44922 137.12305 174.17914 137.12305 172.61914 L 137.12305 150.56055 C 137.12305 148.99055 138.39314 147.73047 139.95312 147.73047 z M 139.94336 187.4707 L 141.48242 187.4707 C 143.05242 187.4707 144.3125 188.74078 144.3125 190.30078 L 144.3125 212.35938 C 144.3125 213.92936 143.04242 215.18945 141.48242 215.18945 L 139.94336 215.18945 C 138.37336 215.18945 137.11328 213.91936 137.11328 212.35938 L 137.11328 190.30078 C 137.11328 188.73078 138.38336 187.4707 139.94336 187.4707 z " />
</svg>
