<?xml version="1.0" encoding="UTF-8"?><svg id="Layer_1" xmlns="http://www.w3.org/2000/svg" viewBox="0 0 283.46 283.46"><defs><style>.cls-1{fill:#610345;}</style></defs><path class="cls-1" d="M208.15,101.85c0-37.76-31.51-68.16-69.67-66.34-33.98,1.62-61.51,29.17-63.1,63.16-1.49,31.77,19.36,58.91,48.19,67.08,2.42,.69,4.13,2.85,4.13,5.37v54.15c0,2.1-.07,3.81-.21,5.13-.14,1.33-.35,2.41-.63,3.25-.28,.84-.7,1.47-1.26,1.89-.56,.42-1.33,.77-2.3,1.05l-3.77,1.05c-.98,.28-1.71,.87-2.2,1.78-.49,.91-.73,1.92-.73,3.04,0,1.96,.49,3.32,1.47,4.08,.98,.77,2.65,1.22,5.03,1.36l3.77,.21h31.84c5.45,0,8.17-1.81,8.17-5.45,0-2.93-1.75-4.75-5.24-5.45-1.96-.28-3.49-.59-4.61-.94-1.12-.35-1.92-.94-2.41-1.78-.49-.84-.8-2.02-.94-3.56-.14-1.54-.21-3.63-.21-6.28v-52.92c0-2.54,1.72-4.77,4.18-5.38,29-7.13,50.51-33.29,50.51-64.48Z"/></svg>