<?xml version="1.0" encoding="UTF-8" standalone="no"?>
<!-- Created with Inkscape (http://www.inkscape.org/) -->

<svg
   version="1.1"
   id="svg1"
   width="668.02667"
   height="301.30667"
   viewBox="0 0 668.02667 301.30667"
   sodipodi:docname="gentgezien-logo-white.svg"
   inkscape:version="1.3.1 (9b9bdc1480, 2023-11-25, custom)"
   xmlns:inkscape="http://www.inkscape.org/namespaces/inkscape"
   xmlns:sodipodi="http://sodipodi.sourceforge.net/DTD/sodipodi-0.dtd"
   xmlns="http://www.w3.org/2000/svg"
   xmlns:svg="http://www.w3.org/2000/svg">
  <defs
     id="defs1" />
  <sodipodi:namedview
     id="namedview1"
     pagecolor="#ffffff"
     bordercolor="#000000"
     borderopacity="0.25"
     inkscape:showpageshadow="2"
     inkscape:pageopacity="0.0"
     inkscape:pagecheckerboard="0"
     inkscape:deskcolor="#d1d1d1"
     showgrid="false"
     inkscape:zoom="2.3142788"
     inkscape:cx="334.01334"
     inkscape:cy="150.80292"
     inkscape:window-width="2510"
     inkscape:window-height="1371"
     inkscape:window-x="0"
     inkscape:window-y="0"
     inkscape:window-maximized="1"
     inkscape:current-layer="g1">
    <inkscape:page
       x="0"
       y="0"
       inkscape:label="1"
       id="page1"
       width="668.02667"
       height="301.30667"
       margin="0"
       bleed="0" />
  </sodipodi:namedview>
  <g
     id="g1"
     inkscape:groupmode="layer"
     inkscape:label="1">
    <g
       id="g11">
      <path
         id="path2"
         d="m 101.30573,141.77734 c -1.15733,-2.79467 -2.647866,-5.40933 -4.384399,-7.88933 -0.1344,-0.192 -0.258267,-0.38934 -0.395867,-0.57867 -1.3676,-1.896 -2.866666,-3.72133 -4.5744,-5.432 -1.6052,-1.604 -3.2084,-3.07333 -4.812,-4.40933 -1.602666,-1.33734 -3.434933,-2.80934 -5.480266,-4.412 -0.383733,-0.3 -0.7932,-0.60934 -1.202533,-0.91867 -0.138534,-0.10533 -0.265067,-0.20533 -0.4052,-0.312 -1.6708,-1.252 -3.538534,-2.57867 -5.609334,-3.98133 -2.765733,-1.87067 -6.193333,-4.14267 -10.289599,-6.816 -7.1308,-4.63067 -12.924,-8.640002 -17.374533,-12.028002 -4.457333,-3.383999 -7.931733,-6.502666 -10.425467,-9.355999 -2.498533,-2.849334 -4.189066,-5.613333 -5.078666,-8.285333 -0.894267,-2.673334 -1.336533,-5.702667 -1.336533,-9.090667 0,-6.413333 2.0048,-11.625333 6.014133,-15.634666 4.0104,-4.010667 9.309333,-6.014667 15.903599,-6.014667 6.415067,0 11.629733,1.870667 15.639067,5.613334 4.009333,3.742666 6.013066,8.645333 6.013066,14.701333 0,4.455999 -0.936,8.198666 -2.806266,11.225333 -1.8708,3.033333 -4.945867,5.794666 -9.221334,8.287999 -2.673466,1.428 -4.009466,3.206667 -4.009466,5.345334 0,2.497333 1.243867,4.502666 3.7412,6.014666 2.4932,1.516 5.788,2.272005 9.8896,2.272005 4.277066,0 8.374533,-0.844005 12.296799,-2.541338 3.917733,-1.690667 7.351067,-4.009333 10.2896,-6.948 2.9412,-2.94 5.301067,-6.369333 7.085469,-10.290666 1.77706,-3.918667 2.67186,-8.106667 2.67186,-12.564 0,-11.581333 -5.080262,-20.402666 -15.234929,-26.461333 3.741733,-1.245333 6.548533,-3.117333 8.4188,-5.614666 1.8708,-2.492 2.8068,-5.521334 2.8068,-9.088 0,-3.562667 -1.028133,-6.324 -3.074533,-8.286667 -2.051067,-1.958666 -4.857334,-2.94 -8.420267,-2.94 -3.0308,0 -5.303733,0.76 -6.8156,2.272 -1.516133,1.516 -2.6308,4.236 -3.341733,8.152 -0.8916,4.277333 -2.673467,6.414667 -5.345333,6.414667 -1.247867,0 -2.318667,-0.173334 -3.207733,-0.533334 -6.058934,-1.424 -11.941733,-2.137333 -17.6428,-2.137333 -7.664,0 -14.659866,1.070667 -20.981199,3.216 -6.3276,2.142667 -11.762533,5.133333 -16.306267,8.966666 C 9.7557331,45.533343 6.2354132,50.173343 3.7411466,55.620009 1.2442706,61.065343 0,67.000009 0,73.422676 c 0,11.426666 4.5437466,22.047999 13.6312,31.863994 1.6048,1.608 3.249066,3.21467 4.945866,4.82 1.6912,1.60667 3.695867,3.304 6.014133,5.09067 2.3124,1.788 4.985334,3.792 8.018134,6.02267 2.324533,1.71066 4.966666,3.55866 7.921333,5.532 0.3016,0.20133 0.622933,0.412 0.929733,0.61466 0.6068,0.40134 1.2068,0.80134 1.8412,1.216 3.5624,2.50267 6.504133,4.512 8.821333,6.028 2.313467,1.52 4.230667,2.85734 5.7468,4.01867 1.512,1.16 2.806266,2.18267 3.876133,3.07733 1.0692,0.89334 2.138533,1.784 3.206267,2.67734 2.690533,2.424 4.793733,4.74666 6.316133,6.96933 0.444267,0.62933 0.840133,1.284 1.197333,1.96267 0.0308,0.0573 0.07613,0.116 0.1052,0.172 0.168267,0.316 0.290667,0.652 0.438534,0.976 0.08027,0.18133 0.169866,0.356 0.244266,0.54 0.328133,0.82266 0.588133,1.62133 0.8188,2.40533 0.03173,0.11067 0.06253,0.224 0.0932,0.336 0.526533,1.892 0.7984,3.92933 0.7984,6.124 0,1.46933 -0.139467,2.83333 -0.343733,4.14773 -0.414534,2.6708 -1.210934,5.04947 -2.464,7.0776 -1.8708,3.03334 -4.945333,5.7932 -9.221333,8.28654 -2.673467,1.42813 -4.009467,3.20826 -4.009467,5.3452 0,2.49906 1.244267,4.50426 3.741733,6.0152 2.494267,1.5172 5.787467,2.27293 9.890667,2.27293 2.7572,0 5.433333,-0.39067 8.043733,-1.09427 1.435867,-0.38813 2.8588,-0.84426 4.252,-1.44533 3.9172,-1.69227 7.350533,-4.00947 10.289066,-6.94947 2.941734,-2.94173 5.301596,-6.36933 7.085466,-10.29226 1.77867,-3.9172 2.59213,-10.3532 2.65627,-13.1812 0.0625,-2.82934 0.0625,-5.17867 0.0625,-5.88134 0,-5.704 -1.50267,-11.22666 -3.6412,-16.39333 v 0"
         style="fill:#ffffff;fill-opacity:1;fill-rule:nonzero;stroke:none;stroke-width:0.133333" />
      <path
         id="path3"
         d="m 35.717732,299.16916 c 6.058267,1.42397 11.941067,2.13751 17.642667,2.13751 7.664133,0 14.658399,-1.07187 20.981332,-3.21459 6.328,-2.1427 11.7624,-5.13333 16.306667,-8.96822 4.5428,-3.83852 8.064133,-8.47706 10.557332,-13.92399 2.49733,-5.44627 3.7412,-11.3812 3.7412,-17.8052 0,-11.42653 -4.54387,-22.0468 -13.630799,-31.86253 -1.6052,-1.60827 -3.248933,-3.21613 -4.9464,-4.81867 -1.690533,-1.60946 -3.696266,-3.30413 -6.013466,-5.09226 -2.3136,-1.788 -4.986534,-3.7932 -8.019867,-6.0224 -2.3228,-1.71094 -4.9656,-3.5572 -7.920266,-5.53227 -0.301067,-0.20107 -0.6224,-0.412 -0.9292,-0.61453 -0.606667,-0.40267 -1.206667,-0.80267 -1.842667,-1.2172 -3.561466,-2.5016 -6.502533,-4.51094 -8.819733,-6.02654 -2.3136,-1.5204 -4.2308,-2.85626 -5.746933,-4.0188 -1.512,-1.15986 -2.8068,-2.1844 -3.876,-3.0776 -1.069333,-0.8932 -2.138533,-1.7828 -3.2068,-2.67706 -2.690667,-2.424 -4.7932,-4.74694 -6.3172,-6.96934 -0.442666,-0.6296 -0.838533,-1.28426 -1.195866,-1.96293 -0.03067,-0.0557 -0.076,-0.1156 -0.105734,-0.17187 -0.1676,-0.31613 -0.290533,-0.65213 -0.4396,-0.97613 -0.07853,-0.1812 -0.168133,-0.35573 -0.242666,-0.54 -0.329734,-0.8224 -0.588,-1.61987 -0.818667,-2.4052 -0.0324,-0.11053 -0.06253,-0.224 -0.09333,-0.336 -1.1192,-4.0172 -1.0328,-7.50533 -0.454667,-10.272 0.413067,-2.66933 1.209333,-5.048 2.462533,-7.07733 1.8708,-3.032 4.9468,-5.79334 9.221333,-8.28667 2.673467,-1.428 4.0104,-3.208 4.0104,-5.34533 0,-2.49867 -1.243733,-4.50267 -3.741066,-6.01467 -2.4948,-1.516 -5.788134,-2.272 -9.890667,-2.272 -2.7584,0 -5.433866,0.38933 -8.043733,1.09333 -1.437067,0.388 -2.859467,0.844 -4.252667,1.44534 -3.917199,1.692 -7.350493,4.00933 -10.2895592,6.94933 -2.9411333,2.94133 -5.3010399,6.37067 -7.0848932,10.292 -1.77812129,3.91733 -2.59270487,10.35333 -2.6557258,13.18133 C 0,169.59574 0,171.94521 0,172.64787 c 0,5.70574 1.5026,11.22707 3.6411466,16.39374 1.1572933,2.79426 2.6484399,5.4088 4.3843732,7.88906 0.1343733,0.19214 0.2583333,0.3896 0.39584,0.57867 1.3687466,1.89573 2.8666662,3.72133 4.5750002,5.43227 1.604706,1.60253 3.207773,3.07293 4.81204,4.4088 1.603066,1.33653 3.433333,2.8068 5.480133,4.41093 0.383866,0.30107 0.7932,0.6104 1.202666,0.91987 0.137467,0.10573 0.264,0.20573 0.4052,0.31093 1.669734,1.252 3.539067,2.5796 5.609334,3.9828 2.765066,1.87027 6.193199,4.14213 10.289066,6.8156 7.130666,4.63067 12.922933,8.6416 17.374933,12.02813 4.457333,3.3828 7.931866,6.50413 10.425066,9.35467 2.497334,2.84946 4.1896,5.6136 5.078667,8.2864 0.8948,2.67346 1.335866,5.7016 1.335866,9.08813 0,6.41613 -2.003599,11.62813 -6.012933,15.63747 -4.010933,4.00933 -9.309466,6.01453 -15.904266,6.01453 -6.414533,0 -11.629066,-1.8708 -15.638533,-5.61293 -4.009333,-3.7428 -6.013466,-8.64534 -6.013466,-14.7016 0,-4.45574 0.935866,-8.1984 2.806799,-11.22654 1.8708,-3.0324 4.9452,-5.79333 9.221334,-8.28706 2.673466,-1.4276 4.009333,-3.20774 4.009333,-5.34534 0,-2.4968 -1.243733,-4.50253 -3.7412,-6.01453 -2.493733,-1.51613 -5.788,-2.27186 -9.889467,-2.27186 -4.278133,0 -8.374533,0.84373 -12.296933,2.53853 -3.917199,1.6932 -7.351066,4.01093 -10.290106,6.95053 -2.9411465,2.94013 -5.3005198,6.36973 -7.0843731,10.2912 -1.77864,3.91813 -2.6729199,8.10613 -2.6729199,12.56347 0,11.58173 9.292186,22.28173 15.2354,26.46148 5.943733,4.1802 10.798399,7.03228 18.979732,9.62394 v 0"
         style="fill:#ffffff;fill-opacity:1;fill-rule:nonzero;stroke:none;stroke-width:0.133333" />
      <path
         id="path4"
         d="m 175.07733,99.794675 c -3.20667,1.961335 -5.79333,2.939995 -7.75333,2.939995 -2.31734,0 -4.27467,-0.84533 -5.88,-2.53999 -1.60267,-1.690672 -2.404,-3.696005 -2.404,-6.014671 0,-2.492 1.15733,-4.542667 3.47466,-6.146667 l 16.83867,-10.96 c 4.27733,-2.848 7.03733,-5.12 8.28667,-6.814666 1.244,-1.692 1.87066,-3.964 1.87066,-6.817333 0,-4.630667 -1.428,-8.553334 -4.276,-11.761333 -2.85333,-3.206667 -6.32666,-4.812 -10.42533,-4.812 -6.948,0 -12.608,3.848 -16.972,11.533333 -4.37067,7.688 -6.55067,17.790666 -6.55067,30.302666 0,12.874661 2.49334,22.842661 7.484,29.902661 4.988,7.06134 12.02934,10.59067 21.11867,10.59067 4.096,0 8.24,-0.66933 12.428,-2.00533 4.18533,-1.336 9.12933,-3.69734 14.836,-7.08267 3.38266,-1.96 5.88,-2.94133 7.48533,-2.94133 1.95733,0 3.60667,0.71466 4.944,2.14 1.336,1.42666 2.004,3.29866 2.004,5.612 0,2.672 -1.336,5.372 -4.00933,8.096 -2.67334,2.72133 -6.23867,5.14 -10.692,7.24533 -4.456,2.10933 -9.448,3.82133 -14.968,5.13733 -5.52667,1.316 -11.052,1.976 -16.57333,1.976 -8.73334,0 -16.70667,-1.384 -23.924,-4.144 -7.216,-2.76 -13.364,-6.68266 -18.4424,-11.76266 -5.08027,-5.07867 -9,-11.22534 -11.76254,-18.44267 -2.76293,-7.21733 -4.1416,-15.190665 -4.1416,-23.923998 0,-8.728 1.4692,-16.746666 4.41094,-24.055999 2.94013,-7.305334 6.9916,-13.586667 12.16093,-18.844 5.16667,-5.254666 11.36133,-9.356 18.57733,-12.297333 7.21734,-2.94 15.10134,-4.409333 23.65734,-4.409333 6.23466,0 12.11466,0.936 17.64,2.806666 5.52266,1.869334 10.33333,4.366667 14.43599,7.484 4.096,3.121333 7.35067,6.816 9.75467,11.093333 2.40533,4.277333 3.61067,8.82 3.61067,13.632 0,3.208 -0.716,5.878666 -2.14,8.02 -1.428,2.137333 -3.92134,4.188 -7.484,6.148 l -36.62,21.115999 v 0"
         style="fill:#ffffff;fill-opacity:1;fill-rule:nonzero;stroke:none;stroke-width:0.133333" />
      <path
         id="path5"
         d="m 297.70666,31.901343 c 4.97067,-2.14 11.18133,-3.209333 18.64,-3.209333 12.42533,0 21.836,3.476 28.22533,10.424 2.84133,3.033333 4.83733,6.730666 5.98933,11.094666 1.15334,4.369334 1.73334,10.202667 1.73334,17.508 v 48.915994 c 0,5.34534 0.576,8.912 1.73733,10.69067 1.156,1.78533 3.784,3.03333 7.88533,3.74267 4.812,0.89333 7.21734,3.208 7.21734,6.95066 0,4.45734 -2.40534,6.68267 -7.21734,6.68267 h -2.67333 -2.672 -39.02666 -5.34667 c -5.524,0 -8.28533,-2.04667 -8.28533,-6.148 0,-2.49333 0.53466,-4.23067 1.60266,-5.212 1.07067,-0.97733 3.476,-1.91333 7.21734,-2.808 2.49333,-0.71067 4.18533,-1.77867 5.08,-3.208 0.88933,-1.424 1.424,-4.09733 1.60266,-8.01733 v -6.952 -42.233334 c 0,-7.482667 -1.10666,-12.737333 -3.316,-15.769333 -2.21333,-3.028 -5.884,-4.544 -11.01333,-4.544 -7.076,0 -12.73867,3.118667 -16.98133,9.356 -1.77067,2.850666 -3.05334,6.326666 -3.84667,10.423999 -0.79733,4.1 -1.19467,9.533334 -1.19467,16.305333 v 31.542665 c 0,5.16933 0.48934,8.552 1.47067,10.15467 0.976,1.60533 3.16,2.76666 6.548,3.476 3.02933,0.53333 5.07867,1.296 6.14933,2.27333 1.068,0.98133 1.60267,2.53867 1.60267,4.67733 0,2.852 -0.80267,4.67734 -2.40533,5.48 -1.60534,0.80134 -4.99067,1.20267 -10.15867,1.20267 h -39.56 -5.34667 c -5.524,0 -8.284,-2.22533 -8.284,-6.68267 0,-4.27733 3.028,-6.772 9.08667,-7.48533 3.56267,-0.35467 5.788,-1.46933 6.68267,-3.34133 0.88933,-1.87067 1.336,-5.92134 1.336,-12.16134 V 70.925342 c 0,-5.166666 -0.53334,-8.594666 -1.604,-10.290666 -1.068,-1.690667 -3.38667,-2.626667 -6.94934,-2.806667 -3.032,-0.354666 -5.212,-1.024 -6.548,-2.005333 -1.336,-0.976 -2.004,-2.713333 -2.004,-5.210666 0,-1.96 0.53334,-3.477334 1.60267,-4.545334 1.06933,-1.069333 2.94,-2.138666 5.61333,-3.208 l 32.264,-12.563999 c 0.89334,-0.353334 1.79067,-0.62 2.69334,-0.8 0.89866,-0.176 1.708,-0.266667 2.42666,-0.266667 3.05334,0 4.58134,2.228 4.58134,6.682667 v 7.483999 c 5.32533,-5.521333 10.476,-9.357333 15.44533,-11.493333 v 0"
         style="fill:#ffffff;fill-opacity:1;fill-rule:nonzero;stroke:none;stroke-width:0.133333" />
      <path
         id="path6"
         d="m 439.16266,32.434677 c 5.34666,0 8.02,2.406666 8.02,7.217333 0,3.030666 -0.89334,5.037333 -2.67334,6.014666 -1.78266,0.98 -5.07866,1.468 -9.89066,1.468 -2.672,0 -4.72267,0.09333 -6.148,0.269334 -1.42667,0.178666 -2.53867,0.626666 -3.34134,1.336 -0.8,0.714666 -1.336,1.782666 -1.60266,3.206666 -0.268,1.429334 -0.40134,3.388 -0.40134,5.881333 v 6.416 48.381331 c 0,6.06 0.35467,10.06933 1.06934,12.028 1.24533,2.85067 3.64933,4.27733 7.21733,4.27733 0.88933,0 1.82533,-0.088 2.80667,-0.26933 0.976,-0.17467 1.91333,-0.44133 2.80666,-0.8 2.13734,-0.712 3.516,-1.15733 4.14267,-1.33867 0.62267,-0.17333 1.29067,-0.26666 2.004,-0.26666 1.96,0 3.65067,0.80266 5.08,2.40533 1.424,1.60533 2.13867,3.56667 2.13867,5.88133 0,1.784 -0.84934,3.52267 -2.54,5.21334 -1.69467,1.696 -3.92134,3.208 -6.68267,4.544 -2.764,1.336 -5.97333,2.40533 -9.62267,3.208 -3.65333,0.80133 -7.35066,1.20266 -11.09333,1.20266 -13.18933,0 -22.09733,-4.27733 -26.72933,-12.83066 -1.248,-2.31334 -2.13734,-5.16667 -2.67334,-8.55467 -0.53466,-3.38133 -0.80133,-7.752 -0.80133,-13.09733 V 61.034676 55.156009 c 0,-3.385333 -0.62667,-5.567999 -1.872,-6.549333 -1.248,-0.978666 -4.1,-1.56 -8.55333,-1.738666 -6.06,0 -9.088,-2.404 -9.088,-7.216 0,-2.673333 0.80266,-4.544 2.40533,-5.614667 1.604,-1.069333 4.45333,-1.602666 8.55333,-1.602666 h 8.55467 V 20.585344 c 0,-2.848 0.488,-4.945334 1.46933,-6.281333 0.97734,-1.336 2.80667,-2.714667 5.48,-4.144 l 17.37467,-8.5533335 c 1.78,-1.06933331 3.20667,-1.60399997 4.27733,-1.60399997 2.848,0 4.276,2.58666657 4.276,7.75199977 V 32.434677 h 16.03734 v 0"
         style="fill:#ffffff;fill-opacity:1;fill-rule:nonzero;stroke:none;stroke-width:0.133333" />
      <path
         id="path7"
         d="m 175.07733,231.55361 c -3.20667,1.9624 -5.79333,2.93946 -7.75333,2.93946 -2.31734,0 -4.27467,-0.84373 -5.88,-2.53946 -1.60267,-1.69067 -2.404,-3.6964 -2.404,-6.0136 0,-2.4932 1.15733,-4.54427 3.47466,-6.14787 l 16.83867,-10.96 c 4.27733,-2.8484 7.03733,-5.12027 8.28667,-6.81507 1.244,-1.6916 1.87066,-3.96346 1.87066,-6.8172 0,-4.63066 -1.428,-8.55306 -4.276,-11.76146 -2.85333,-3.20627 -6.32666,-4.8104 -10.42533,-4.8104 -6.948,0 -12.608,3.84693 -16.972,11.53173 -4.37067,7.68813 -6.55067,17.79227 -6.55067,30.30427 0,12.87333 2.49334,22.84266 7.484,29.90146 4.988,7.06093 12.02934,10.59067 21.11867,10.59067 4.096,0 8.24,-0.66827 12.428,-2.00574 4.18533,-1.33586 9.12933,-3.69586 14.836,-7.08226 3.38266,-1.9588 5.88,-2.94014 7.48533,-2.94014 1.95733,0 3.60667,0.7136 4.944,2.13854 1.336,1.42813 2.004,3.29893 2.004,5.612 0,2.67346 -1.336,5.37186 -4.00933,8.0964 -2.67334,2.7208 -6.23867,5.1396 -10.692,7.24533 -4.456,2.1088 -9.448,3.82133 -14.968,5.13693 -5.52667,1.31614 -11.052,1.97494 -16.57333,1.97494 -8.73334,0 -16.70667,-1.3828 -23.924,-4.14267 -7.216,-2.7604 -13.364,-6.6828 -18.4424,-11.76147 -5.08027,-5.07866 -9,-11.22653 -11.76254,-18.44266 -2.76293,-7.2188 -4.1416,-15.19067 -4.1416,-23.924 0,-8.7292 1.4692,-16.74787 4.41094,-24.05733 2.94013,-7.3052 6.9916,-13.58694 12.16093,-18.84427 5.16667,-5.25467 11.36133,-9.35573 18.57733,-12.29573 7.21734,-2.94134 15.10134,-4.41067 23.65734,-4.41067 6.23466,0 12.11466,0.936 17.64,2.80667 5.52266,1.87066 10.33333,4.368 14.43599,7.48413 4.096,3.12133 7.35067,6.8172 9.75467,11.0932 2.40533,4.2772 3.61067,8.81987 3.61067,13.63187 0,3.20826 -0.716,5.88013 -2.14,8.01866 -1.428,2.14014 -3.92134,4.1896 -7.484,6.14947 l -36.62,21.11627 v 0"
         style="fill:#ffffff;fill-opacity:1;fill-rule:nonzero;stroke:none;stroke-width:0.133333" />
      <path
         id="path8"
         d="m 289.95599,259.1332 c 15.73334,0 18.13334,-1.33333 24.8,-10.93333 3.46667,-5.06667 5.6,-6.66667 9.06667,-6.66667 3.46667,0 6.4,2.66667 6.4,6.13334 0,1.06666 -0.26667,2.66666 -1.06667,4.53333 l -6.13333,16.26667 c -2.4,6.4 -4.26667,7.46666 -11.46667,7.46666 h -71.19866 c -5.06667,0 -8,-2.4 -8,-6.66666 0,-3.2 1.33333,-5.60107 5.86666,-12.53334 l 48.53334,-75.99839 h -17.06667 c -10.66667,0 -14.4,1.5984 -18.93333,7.9984 -5.06667,6.93333 -6.4,8.26666 -10.13334,8.26666 -4,0 -6.66666,-2.66666 -6.66666,-6.3984 0,-1.06666 0.26666,-2.4 0.8,-3.46666 l 7.2,-18.13494 c 1.6,-3.99986 3.73333,-5.0652 9.06666,-5.0652 h 65.06534 c 5.33333,0 5.33333,0 6.66666,0.8 1.86667,1.06667 3.2,3.4668 3.2,5.59854 0,2.93493 -1.06666,5.6016 -5.06666,12.26826 l -48.532,76.53173 h 17.59866"
         style="fill:#ffffff;fill-opacity:1;fill-rule:nonzero;stroke:none;stroke-width:0.133333" />
      <path
         id="path9"
         d="m 390.48799,238.86654 c 0,19.73333 0.53333,21.6 6.66667,22.66666 l 3.2,0.53334 c 5.33333,1.06666 7.20133,2.93226 7.20133,6.93226 0,5.33334 -2.40133,6.9344 -11.20133,6.9344 h -43.99867 c -8.53333,0 -11.2,-1.60106 -11.2,-6.9344 0,-4 1.6,-5.59893 7.46667,-6.93226 l 2.66666,-0.53334 c 6.4,-1.33333 6.93334,-2.93333 6.93334,-22.66666 v -35.9984 c 0,-10.93333 -1.06667,-12.53493 -7.73334,-13.6 -7.2,-1.06667 -9.6,-2.66667 -9.6,-7.2 0,-4 1.86667,-5.86667 8.53334,-8.26667 l 28.532,-11.20013 c 5.33333,-1.86667 5.33333,-1.86667 6.66666,-1.86667 4,0 5.86667,2.66667 5.86667,8.53347 v 69.5984"
         style="fill:#ffffff;fill-opacity:1;fill-rule:nonzero;stroke:none;stroke-width:0.133333" />
      <path
         id="path10"
         d="m 476.88799,231.13321 c -3.46667,2.13333 -5.86667,2.93333 -7.73334,2.93333 -4.53333,0 -8.26666,-4 -8.26666,-8.53333 0,-2.66667 1.06667,-4.53334 3.46667,-6.13334 l 16.79999,-10.93333 c 8.532,-5.5984 10.132,-8 10.132,-13.5984 0,-9.33333 -6.39866,-16.53493 -14.66666,-16.53493 -13.86533,0 -23.46533,16.8016 -23.46533,41.6016 0,25.33173 10.66666,40.26506 28.53333,40.26506 7.99866,0 15.73333,-2.4 27.2,-9.06667 3.732,-2.13333 5.6,-2.93333 7.46533,-2.93333 4,0 6.93333,3.2 6.93333,7.73333 0,10.93334 -23.732,22.66667 -46.132,22.66667 -34.93199,0 -58.13333,-23.2 -58.13333,-58.13333 0,-34.66507 24.53467,-59.4652 58.66667,-59.4652 25.06666,0 45.332,15.73347 45.332,34.93347 0,6.3984 -2.4,10.13173 -9.6,14.13173 l -36.532,21.06667"
         style="fill:#ffffff;fill-opacity:1;fill-rule:nonzero;stroke:none;stroke-width:0.133333" />
      <path
         id="path11"
         d="m 596.59999,165.13867 c 4.97066,-2.14 11.18133,-3.20933 18.63999,-3.20933 12.42534,0 21.83467,3.476 28.22534,10.4252 2.84,3.0324 4.836,6.7292 5.98933,11.09333 1.15333,4.3692 1.73333,10.20254 1.73333,17.50827 v 48.9156 c 0,5.34533 0.576,8.912 1.73734,10.69226 1.156,1.78387 3.78266,3.03227 7.88533,3.74267 4.812,0.8932 7.21733,3.2068 7.21733,6.94947 0,4.45733 -2.40533,6.68226 -7.21733,6.68226 h -2.67333 -2.672 -39.02667 -5.34667 c -5.524,0 -8.28666,-2.04626 -8.28666,-6.14786 0,-2.4932 0.536,-4.2308 1.604,-5.212 1.06933,-0.97707 3.476,-1.91307 7.216,-2.80787 2.49333,-0.70933 4.18666,-1.77853 5.08133,-3.20667 0.88933,-1.424 1.42267,-4.09746 1.60267,-8.0188 v -6.95053 -42.23333 c 0,-7.48387 -1.10667,-12.73853 -3.316,-15.7708 -2.21467,-3.02813 -5.88534,-4.54373 -11.01467,-4.54373 -7.076,0 -12.73733,3.11973 -16.98133,9.35573 -1.76933,2.852 -3.05333,6.32653 -3.84667,10.42387 -0.796,4.1016 -1.19466,9.53493 -1.19466,16.30573 v 31.5428 c 0,5.1692 0.49066,8.55306 1.47066,10.15573 0.976,1.60413 3.16134,2.7656 6.54934,3.476 3.02933,0.53333 5.07733,1.2948 6.14933,2.27187 1.06667,0.9812 1.60267,2.53853 1.60267,4.6776 0,2.85213 -0.80267,4.67706 -2.40534,5.47973 -1.60533,0.80147 -4.992,1.20253 -10.16,1.20253 h -39.55866 -5.34667 c -5.52533,0 -8.28533,-2.22493 -8.28533,-6.68226 0,-4.2776 3.028,-6.7708 9.08666,-7.48547 3.56267,-0.35467 5.788,-1.4692 6.684,-3.34107 0.88934,-1.8708 1.33467,-5.92133 1.33467,-12.16146 v -44.10413 c 0,-5.16667 -0.532,-8.59587 -1.604,-10.29067 -1.06667,-1.69213 -3.38533,-2.62813 -6.94933,-2.80787 -3.03067,-0.35466 -5.212,-1.0228 -6.548,-2.00413 -1.336,-0.9776 -2.004,-2.71453 -2.004,-5.212 0,-1.95987 0.53333,-3.476 1.60266,-4.54533 1.06934,-1.0692 2.94134,-2.13747 5.61334,-3.20667 l 32.26533,-12.564 c 0.892,-0.35467 1.78933,-0.62133 2.692,-0.80133 0.9,-0.176 1.70933,-0.26667 2.428,-0.26667 3.052,0 4.58133,2.22933 4.58133,6.68253 v 7.48427 c 5.324,-5.52133 10.47467,-9.35613 15.44534,-11.49347 v 0"
         style="fill:#ffffff;fill-opacity:1;fill-rule:nonzero;stroke:none;stroke-width:0.133333" />
    </g>
  </g>
</svg>
