<?xml version="1.0" encoding="UTF-8"?><svg id="Layer_1" xmlns="http://www.w3.org/2000/svg" viewBox="0 0 283.46 283.46"><defs><style>.cls-1{fill:#610345;}</style></defs><path class="cls-1" d="M71.97,69.43c0-1.2-.27-2.38-.8-3.46l-13.96-28.36c-1.43-2.91-5.58-2.91-7.01,0l-13.96,28.36c-.53,1.07-.8,2.26-.8,3.45V242.36c0,3.13,2.54,5.67,5.67,5.67h25.2c3.13,0,5.67-2.54,5.67-5.67V69.43Z"/><g><path class="cls-1" d="M139.31,50.98c0-2.49-2.13-4.42-4.61-4.24-32.32,2.36-57.81,29.33-57.81,62.26V242.36c0,3.13,2.54,5.67,5.67,5.67h51.09c3.13,0,5.67-2.54,5.67-5.67V50.98Z"/><path class="cls-1" d="M144.16,50.98c0-2.49,2.13-4.42,4.61-4.24,32.32,2.36,57.81,29.33,57.81,62.26V242.36c0,3.13-2.54,5.67-5.67,5.67h-51.09c-3.13,0-5.67-2.54-5.67-5.67V50.98Z"/></g><path class="cls-1" d="M248.03,69.43c0-1.2-.27-2.38-.8-3.46l-13.96-28.36c-1.43-2.91-5.58-2.91-7.01,0l-13.96,28.36c-.53,1.07-.8,2.26-.8,3.45V242.36c0,3.13,2.54,5.67,5.67,5.67h25.2c3.13,0,5.67-2.54,5.67-5.67V69.43Z"/></svg>