<?xml version="1.0" encoding="UTF-8"?><svg xmlns="http://www.w3.org/2000/svg" viewBox="0 0 283.46 283.46"><defs><style>.cls-1{fill:#610345;}</style></defs><g id="Layer_1"><path class="cls-1" d="M245.62,84.99l-98.28-48.38c-3.56-1.75-7.73-1.75-11.29,0L37.76,84.99c-4.05,1.99-2.63,8.08,1.88,8.08H243.74c4.51,0,5.93-6.09,1.88-8.08"/></g><g id="Layer_3"><g><path class="cls-1" d="M242.6,152.97c-3.09,1.83-6.62,2.81-10.3,2.81-7.15,0-13.43-3.74-17.02-9.37-.51-.8-1.67-.82-2.17-.02h0s-.01,46.3-.01,46.3c0,1.57-1.27,2.83-2.83,2.83h-46.08c-1.57,0-2.83-1.27-2.83-2.83v-35.65c0-.72-.59-1.28-1.31-1.26-.07,0-.13,0-.2,0-6.43,0-12.15-3.02-15.85-7.72-1.16-1.48-3.35-1.47-4.51,.01-.49,.62-1.01,1.22-1.58,1.79-2.62,2.62-5.83,4.41-9.33,5.29-1.27,.32-2.13,1.5-2.13,2.81v84.4c0,3.13,2.54,5.67,5.67,5.67h110.27c3.13,0,5.67-2.54,5.67-5.67v-87.74c0-2.36-2.68-3.64-4.57-2.24-.28,.21-.57,.41-.87,.59Z"/><path class="cls-1" d="M71.53,148.07c-1.17-1.48-3.36-1.47-4.52,0-.49,.62-1.02,1.22-1.58,1.79-3.82,3.82-8.89,5.92-14.29,5.92-4.2,0-8.09-1.29-11.33-3.49-1.88-1.28-4.42,.07-4.42,2.34l-.02,87.72c0,3.13,2.54,5.67,5.67,5.67h27.96c3.13,0,5.67-2.54,5.67-5.67v-91.1c-1.16-.94-2.22-2.01-3.15-3.19Z"/></g><g><path class="cls-1" d="M144.13,135.58c0,8.93,7.45,16.11,16.47,15.69,8.45-.4,14.95-7.67,14.95-16.13v-33.16c0-2.35-1.9-4.25-4.25-4.25h-22.91c-2.35,0-4.25,1.9-4.25,4.25v33.6Z"/><path class="cls-1" d="M180.36,135.58c0,8.67,7.03,15.71,15.71,15.71h0c8.67,0,15.71-7.03,15.71-15.71v-33.6c0-2.35-1.9-4.25-4.25-4.25h-22.91c-2.35,0-4.25,1.9-4.25,4.25v33.6Z"/><path class="cls-1" d="M243.75,97.72h-22.91c-2.35,0-4.25,1.9-4.25,4.25v33.16c0,8.46,6.5,15.74,14.95,16.13,9.02,.42,16.47-6.76,16.47-15.69v-33.6c0-2.35-1.9-4.25-4.25-4.25Z"/><path class="cls-1" d="M107.9,135.58c0,8.67,7.03,15.71,15.71,15.71h0c8.67,0,15.71-7.03,15.71-15.71v-33.6c0-2.35-1.9-4.25-4.25-4.25h-22.91c-2.35,0-4.25,1.9-4.25,4.25v33.6Z"/><path class="cls-1" d="M62.6,97.72h-22.91c-2.35,0-4.25,1.9-4.25,4.25v33.6c0,8.67,7.03,15.71,15.71,15.71h0c8.67,0,15.71-7.03,15.71-15.71v-33.6c0-2.35-1.9-4.25-4.25-4.25Z"/><path class="cls-1" d="M71.67,135.58c0,8.93,7.45,16.11,16.47,15.69,8.45-.4,14.95-7.68,14.95-16.13v-33.16c0-2.35-1.9-4.25-4.25-4.25h-22.91c-2.35,0-4.25,1.9-4.25,4.25v33.6Z"/></g></g></svg>