<?xml version="1.0" encoding="UTF-8" standalone="no"?>
<!-- Created with Inkscape (http://www.inkscape.org/) -->

<svg
   width="29.459627mm"
   height="34.31802mm"
   viewBox="0 0 29.459627 34.31802"
   version="1.1"
   id="svg5"
   inkscape:version="1.2.1 (1:1.2.1+202210291243+9c6d41e410)"
   sodipodi:docname="GentGemapt_Marker.svg"
   xml:space="preserve"
   xmlns:inkscape="http://www.inkscape.org/namespaces/inkscape"
   xmlns:sodipodi="http://sodipodi.sourceforge.net/DTD/sodipodi-0.dtd"
   xmlns="http://www.w3.org/2000/svg"
   xmlns:svg="http://www.w3.org/2000/svg"><sodipodi:namedview
     id="namedview7"
     pagecolor="#aeb9b9"
     bordercolor="#666666"
     borderopacity="1.0"
     inkscape:pageshadow="2"
     inkscape:pageopacity="0"
     inkscape:pagecheckerboard="0"
     inkscape:document-units="mm"
     showgrid="false"
     inkscape:zoom="5.6800785"
     inkscape:cx="21.478576"
     inkscape:cy="91.460004"
     inkscape:window-width="2508"
     inkscape:window-height="1349"
     inkscape:window-x="0"
     inkscape:window-y="0"
     inkscape:window-maximized="1"
     inkscape:current-layer="layer1"
     fit-margin-top="0"
     fit-margin-left="0"
     fit-margin-right="0"
     fit-margin-bottom="0"
     inkscape:showpageshadow="2"
     inkscape:deskcolor="#d1d1d1"
     inkscape:lockguides="true"
     showguides="true"><sodipodi:guide
       position="14.756085,28.652737"
       orientation="1,0"
       id="guide4641"
       inkscape:locked="true" /></sodipodi:namedview><defs
     id="defs2" /><g
     inkscape:label="Layer 1"
     inkscape:groupmode="layer"
     id="layer1"
     transform="translate(-17.011937,-20.448109)"><path
       style="fill:#ffffff;fill-opacity:1;stroke-width:0.264583"
       d="m 29.22846,52.102482 c -1.934356,-2.341883 -2.446977,-2.79246 -4.243595,-3.72998 -5.139505,-2.681922 -8.004562,-7.46782 -7.972664,-13.317831 0.01699,-3.115247 0.777532,-5.681272 2.368575,-7.991396 7.189145,-10.438318 22.849379,-8.087287 26.539914,3.98437 0.664768,2.174439 0.73814,5.674676 0.164166,7.831487 -1.073666,4.034476 -4.164303,7.866874 -7.725196,9.579257 -1.708083,0.821394 -2.11583,1.182354 -4.078141,3.610192 -1.199168,1.483651 -2.331646,2.697549 -2.516617,2.697549 -0.184972,0 -1.326371,-1.198642 -2.536442,-2.663648 z"
       id="path263"
       sodipodi:nodetypes="ssssssssss" /></g></svg>
