<?xml version="1.0" encoding="UTF-8"?><svg id="Layer_1" xmlns="http://www.w3.org/2000/svg" viewBox="0 0 283.46 283.46"><defs><style>.cls-1{fill:#610345;}</style></defs><path class="cls-1" d="M248.03,56.81v-15.71c0-3.13-2.54-5.67-5.67-5.67H41.1c-3.13,0-5.67,2.54-5.67,5.67V242.36c0,3.13,2.54,5.67,5.67,5.67h37.11c3.59,0,6.3-3.3,5.55-6.82-3.67-17.17-12.22-42.11-32.06-69.64-.9-1.25-.65-2.97,.56-3.92,38.56-30.27,52.16-76.09,59.33-102.29,.67-2.46,2.91-4.17,5.47-4.17h49.35c2.55,0,4.79,1.7,5.47,4.17,7.17,26.2,20.77,72.03,59.33,102.29,1.21,.95,1.46,2.67,.56,3.92-19.83,27.51-28.38,52.43-32.05,69.6-.76,3.53,1.93,6.86,5.55,6.86h37.1c3.13,0,5.67-2.54,5.67-5.67V56.81h0Z"/></svg>