<?xml version="1.0" encoding="UTF-8"?><svg id="Layer_3" xmlns="http://www.w3.org/2000/svg" viewBox="0 0 283.46 283.46"><defs><style>.cls-1{fill:#1d1d1b;}</style></defs><path class="cls-1" d="M128.85,39.99c0-2.1-2.2-3.47-4.09-2.54L38.6,79.86c-1.94,.95-3.17,2.93-3.17,5.09V244.97c0,1.57,1.27,2.83,2.83,2.83h31.7c1.57,0,2.83-1.27,2.83-2.83v-29.32c0-1.57,1.27-2.83,2.83-2.83h13.01c1.57,0,2.83,1.27,2.83,2.83v29.32c0,1.57,1.27,2.83,2.83,2.83h31.7c1.57,0,2.83-1.27,2.83-2.83V81.42h0V39.99Zm-56.05,152.73c0,.78-.63,1.42-1.42,1.42h-15.85c-.78,0-1.42-.63-1.42-1.42v-15.85c0-.78,.63-1.42,1.42-1.42h15.85c.78,0,1.42,.63,1.42,1.42v15.85Zm0-37.37c0,.78-.63,1.42-1.42,1.42h-15.85c-.78,0-1.42-.63-1.42-1.42v-15.85c0-.78,.63-1.42,1.42-1.42h15.85c.78,0,1.42,.63,1.42,1.42v15.85Zm0-37.37c0,.78-.63,1.42-1.42,1.42h-15.85c-.78,0-1.42-.63-1.42-1.42v-15.85c0-.78,.63-1.42,1.42-1.42h15.85c.78,0,1.42,.63,1.42,1.42v15.85Zm37.37,74.73c0,.78-.63,1.42-1.42,1.42h-15.85c-.78,0-1.42-.63-1.42-1.42v-15.85c0-.78,.63-1.42,1.42-1.42h15.85c.78,0,1.42,.63,1.42,1.42v15.85Zm0-37.37c0,.78-.63,1.42-1.42,1.42h-15.85c-.78,0-1.42-.63-1.42-1.42v-15.85c0-.78,.63-1.42,1.42-1.42h15.85c.78,0,1.42,.63,1.42,1.42v15.85Zm0-37.37c0,.78-.63,1.42-1.42,1.42h-15.85c-.78,0-1.42-.63-1.42-1.42v-15.85c0-.78,.63-1.42,1.42-1.42h15.85c.78,0,1.42,.63,1.42,1.42v15.85Z"/><path class="cls-1" d="M244.87,117.21l-86.16-42.42c-1.88-.93-4.09,.44-4.09,2.54v41.43s0,0,0,0v126.2c0,1.57,1.27,2.83,2.83,2.83h31.7c1.57,0,2.83-1.27,2.83-2.83v-29.34c0-1.57,1.27-2.83,2.83-2.83h13.01c1.57,0,2.83,1.27,2.83,2.83v29.34c0,1.57,1.27,2.83,2.83,2.83h31.7c1.57,0,2.83-1.27,2.83-2.83V122.29c0-2.16-1.23-4.13-3.17-5.09Zm-52.88,75.49c0,.78-.63,1.42-1.42,1.42h-15.85c-.78,0-1.42-.63-1.42-1.42v-15.85c0-.78,.63-1.42,1.42-1.42h15.85c.78,0,1.42,.63,1.42,1.42v15.85Zm0-37.37c0,.78-.63,1.42-1.42,1.42h-15.85c-.78,0-1.42-.63-1.42-1.42v-15.85c0-.78,.63-1.42,1.42-1.42h15.85c.78,0,1.42,.63,1.42,1.42v15.85Zm37.37,37.37c0,.78-.63,1.42-1.42,1.42h-15.85c-.78,0-1.42-.63-1.42-1.42v-15.85c0-.78,.63-1.42,1.42-1.42h15.85c.78,0,1.42,.63,1.42,1.42v15.85Zm0-37.37c0,.78-.63,1.42-1.42,1.42h-15.85c-.78,0-1.42-.63-1.42-1.42v-15.85c0-.78,.63-1.42,1.42-1.42h15.85c.78,0,1.42,.63,1.42,1.42v15.85Z"/></svg>