<?xml version="1.0" encoding="UTF-8"?><svg id="Layer_1" xmlns="http://www.w3.org/2000/svg" viewBox="0 0 283.46 283.46"><defs><style>.cls-1{fill:#1d1d1b;}</style></defs><path class="cls-1" d="M241.81,38.13c-1.3,10.09-9.94,17.92-20.38,17.92-9.57,0-17.63-6.57-19.91-15.44-.78-3.03-3.53-5.14-6.66-5.14h0c-3.13,0-5.88,2.11-6.66,5.14-2.28,8.87-10.34,15.44-19.91,15.44s-17.63-6.57-19.91-15.44c-.78-3.03-3.53-5.14-6.66-5.14h0c-3.13,0-5.88,2.11-6.66,5.14-2.28,8.87-10.34,15.44-19.91,15.44s-17.63-6.57-19.91-15.44c-.78-3.03-3.53-5.14-6.66-5.14h0c-3.13,0-5.88,2.11-6.66,5.14-2.28,8.87-10.34,15.44-19.91,15.44-10.44,0-19.09-7.83-20.38-17.92-.2-1.53-1.53-2.67-3.07-2.67h0c-.09,0-.18,0-.27,0-1.57,0-2.84,1.27-2.84,2.83v14.13c0,1.31,.46,2.59,1.28,3.61,5.98,7.35,15.09,12.05,25.28,12.05s18.5-4.29,24.47-11.09c1.11-1.26,3.09-1.26,4.2,0,5.98,6.79,14.73,11.09,24.47,11.09s18.5-4.29,24.47-11.09c1.11-1.26,3.09-1.26,4.2,0,5.98,6.79,14.73,11.09,24.47,11.09s18.5-4.29,24.47-11.09c1.11-1.26,3.09-1.26,4.2,0,5.98,6.79,14.73,11.09,24.47,11.09s19.31-4.71,25.29-12.06c.83-1.02,1.28-2.28,1.28-3.59,.01-4.2,.02-13.87,.02-13.87,0-1.72-1.39-3.11-3.11-3.11h-.04c-1.55,0-2.87,1.13-3.07,2.67Z"/><path class="cls-1" d="M241.81,218.07c-1.3,10.09-9.94,17.92-20.38,17.92-9.57,0-17.63-6.57-19.91-15.44-.78-3.03-3.53-5.14-6.66-5.14h0c-3.13,0-5.88,2.11-6.66,5.14-2.28,8.87-10.34,15.44-19.91,15.44s-17.63-6.57-19.91-15.44c-.78-3.03-3.53-5.14-6.66-5.14h0c-3.13,0-5.88,2.11-6.66,5.14-2.28,8.87-10.34,15.44-19.91,15.44s-17.63-6.57-19.91-15.44c-.78-3.03-3.53-5.14-6.66-5.14h0c-3.13,0-5.88,2.11-6.66,5.14-2.28,8.87-10.34,15.44-19.91,15.44-10.44,0-19.09-7.83-20.38-17.92-.2-1.53-1.53-2.67-3.07-2.67h0c-.09,0-.18,0-.27,0-1.57,0-2.84,1.27-2.84,2.83v14.13c0,1.31,.46,2.59,1.28,3.61,5.98,7.35,15.09,12.05,25.28,12.05s18.5-4.29,24.47-11.09c1.11-1.26,3.09-1.26,4.2,0,5.98,6.79,14.73,11.09,24.47,11.09s18.5-4.29,24.47-11.09c1.11-1.26,3.09-1.26,4.2,0,5.98,6.79,14.73,11.09,24.47,11.09s18.5-4.29,24.47-11.09c1.11-1.26,3.09-1.26,4.2,0,5.98,6.79,14.73,11.09,24.47,11.09s19.31-4.71,25.29-12.06c.83-1.02,1.28-2.28,1.28-3.59,.01-4.2,.02-13.87,.02-13.87,0-1.72-1.39-3.11-3.11-3.11h-.04c-1.55,0-2.87,1.13-3.07,2.67Z"/><path class="cls-1" d="M241.81,128.1c-1.3,10.09-9.94,17.92-20.38,17.92-9.57,0-17.63-6.57-19.91-15.44-.78-3.03-3.53-5.14-6.66-5.14h0c-3.13,0-5.88,2.11-6.66,5.14-2.28,8.87-10.34,15.44-19.91,15.44s-17.63-6.57-19.91-15.44c-.78-3.03-3.53-5.14-6.66-5.14h0c-3.13,0-5.88,2.11-6.66,5.14-2.28,8.87-10.34,15.44-19.91,15.44s-17.63-6.57-19.91-15.44c-.78-3.03-3.53-5.14-6.66-5.14h0c-3.13,0-5.88,2.11-6.66,5.14-2.28,8.87-10.34,15.44-19.91,15.44-10.44,0-19.09-7.83-20.38-17.92-.2-1.53-1.53-2.67-3.07-2.67h0c-.09,0-.18,0-.27,0-1.57,0-2.84,1.27-2.84,2.83v14.13c0,1.31,.46,2.59,1.28,3.61,5.98,7.35,15.09,12.05,25.28,12.05s18.5-4.29,24.47-11.09c1.11-1.26,3.09-1.26,4.2,0,5.98,6.79,14.73,11.09,24.47,11.09s18.5-4.29,24.47-11.09c1.11-1.26,3.09-1.26,4.2,0,5.98,6.79,14.73,11.09,24.47,11.09s18.5-4.29,24.47-11.09c1.11-1.26,3.09-1.26,4.2,0,5.98,6.79,14.73,11.09,24.47,11.09s19.31-4.71,25.29-12.06c.83-1.02,1.28-2.28,1.28-3.59,.01-4.2,.02-13.87,.02-13.87,0-1.72-1.39-3.11-3.11-3.11h-.04c-1.55,0-2.87,1.13-3.07,2.67Z"/><path class="cls-1" d="M245.59,190.73c-8.02-1.27-14.52-7.19-16.61-14.91-.67-2.46-2.46-4.52-4.92-5.17-3.83-1-7.55,1.3-8.47,4.91-2.28,8.87-10.34,15.44-19.91,15.44s-17.63-6.57-19.91-15.44c-.78-3.03-3.53-5.14-6.66-5.14h0c-3.13,0-5.88,2.11-6.66,5.14-2.28,8.87-10.34,15.44-19.91,15.44h0s-.05,0-.08,0c-9.53,0-17.57-6.53-19.88-15.35-.69-2.65-2.91-4.74-5.62-5.15-3.56-.54-6.86,1.68-7.73,5.06-2.28,8.87-10.34,15.44-19.91,15.44s-17.72-6.65-19.95-15.59c-.73-2.95-3.43-4.99-6.48-4.99h0c-2.94,0-6.08,2.29-6.81,5.14-2.08,8.1-9.6,14.29-18.18,15.3-1.41,.17-2.44,1.41-2.43,2.83,.02,3.53-.02,6.45-.02,6.45,0,1.7,1.38,2.95,3.07,2.83,8.78-.63,16.62-4.75,22.11-10.99,1.12-1.27,3.1-1.29,4.21-.02,5.98,6.79,14.73,11.09,24.47,11.09s18.5-4.29,24.47-11.09c1.11-1.26,3.09-1.26,4.2,0,5.98,6.79,14.73,11.09,24.47,11.09,.03,0,.05,0,.08,0h0c9.74,0,18.5-4.29,24.47-11.09,1.11-1.26,3.09-1.26,4.2,0,5.98,6.79,14.73,11.09,24.47,11.09s18.5-4.29,24.47-11.09c1.11-1.26,3.09-1.26,4.2,0,5.15,5.85,12.37,9.84,20.5,10.83,1.69,.21,3.19-1.11,3.19-2.82v-6.47c0-1.41-1.05-2.56-2.44-2.78Z"/><path class="cls-1" d="M245.59,100.76c-8.02-1.27-14.52-7.19-16.61-14.91-.67-2.46-2.46-4.52-4.92-5.17-3.83-1-7.55,1.3-8.47,4.91-2.28,8.87-10.34,15.44-19.91,15.44s-17.63-6.57-19.91-15.44c-.78-3.03-3.53-5.14-6.66-5.14h0c-3.13,0-5.88,2.11-6.66,5.14-2.28,8.87-10.34,15.44-19.91,15.44h0s-.05,0-.08,0c-9.53,0-17.57-6.53-19.88-15.35-.69-2.65-2.91-4.74-5.62-5.15-3.56-.54-6.86,1.68-7.73,5.06-2.28,8.87-10.34,15.44-19.91,15.44s-17.72-6.65-19.95-15.59c-.73-2.95-3.43-4.99-6.48-4.99h0c-2.94,0-6.08,2.29-6.81,5.14-2.08,8.1-9.6,14.29-18.18,15.3-1.41,.17-2.44,1.41-2.43,2.83,.02,3.53-.02,6.45-.02,6.45,0,1.7,1.38,2.95,3.07,2.83,8.78-.63,16.62-4.75,22.11-10.99,1.12-1.27,3.1-1.29,4.21-.02,5.98,6.79,14.73,11.09,24.47,11.09s18.5-4.29,24.47-11.09c1.11-1.26,3.09-1.26,4.2,0,5.98,6.79,14.73,11.09,24.47,11.09,.03,0,.05,0,.08,0h0c9.74,0,18.5-4.29,24.47-11.09,1.11-1.26,3.09-1.26,4.2,0,5.98,6.79,14.73,11.09,24.47,11.09s18.5-4.29,24.47-11.09c1.11-1.26,3.09-1.26,4.2,0,5.15,5.85,12.37,9.84,20.5,10.83,1.69,.21,3.19-1.11,3.19-2.82v-6.47c0-1.41-1.05-2.56-2.44-2.78Z"/></svg>