<?xml version="1.0" encoding="utf-8"?>
<!-- Generator: Adobe Illustrator 26.5.0, SVG Export Plug-In . SVG Version: 6.00 Build 0)  -->
<svg version="1.1" id="Layer_1" xmlns="http://www.w3.org/2000/svg" xmlns:xlink="http://www.w3.org/1999/xlink" x="0px" y="0px"
	 viewBox="0 0 283.5 283.5" style="enable-background:new 0 0 283.5 283.5;" xml:space="preserve">
<style type="text/css">
	.st0{fill:#1D1D1B;}
</style>
<g>
	<path class="st0" d="M187.9,164.5L187.9,164.5l-92.4,0c-4.3,0.5-7.7,4.3-7.5,8.8s4.2,8.3,8.9,8.3H125c1.6,0,2.8,1.3,2.8,2.8v40.9
		c0,2.1-0.1,3.8-0.2,5.1c-0.1,1.3-0.3,2.4-0.6,3.2c-0.3,0.8-0.7,1.5-1.3,1.9c-0.6,0.4-1.3,0.8-2.3,1.1l-3.8,1
		c-1,0.3-1.7,0.9-2.2,1.8c-0.5,0.9-0.7,1.9-0.7,3c0,2,0.5,3.3,1.5,4.1c1,0.8,2.7,1.2,5,1.4l3.8,0.2h31.8c5.5,0,8.2-1.8,8.2-5.4
		c0-2.9-1.8-4.8-5.2-5.5c-2-0.3-3.5-0.6-4.6-0.9c-1.1-0.4-1.9-0.9-2.4-1.8c-0.5-0.8-0.8-2-0.9-3.6c-0.1-1.5-0.2-3.6-0.2-6.3v-40.2
		c0-1.6,1.3-2.8,2.8-2.8h30.1c4.7,0,8.8-3.6,8.9-8.3S192.3,165,187.9,164.5z"/>
	<path class="st0" d="M95.5,65.1H188c4.2-0.5,7.5-4.1,7.5-8.5c0-4.8-3.8-8.6-8.6-8.6h0h-30.7c-1.4,0-2.5-1-2.8-2.3
		c-1.2-5.9-6.4-10.3-12.6-10.3c-6.2,0-11.4,4.4-12.6,10.3c-0.3,1.3-1.4,2.3-2.8,2.3H96.6c-4.8,0-8.6,3.9-8.6,8.6
		C88,61,91.3,64.6,95.5,65.1z"/>
	<path class="st0" d="M99.4,69.6c-1.6,0-2.8,1.3-2.8,2.8v84.7c0,1.6,1.3,2.8,2.8,2.8h84.7c1.6,0,2.8-1.3,2.8-2.8V72.5
		c0-1.6-1.3-2.8-2.8-2.8H99.4z"/>
</g>
</svg>
