<?xml version="1.0" encoding="UTF-8"?><svg id="Layer_4" xmlns="http://www.w3.org/2000/svg" viewBox="0 0 283.46 283.46"><defs><style>.cls-1{fill:#1d1d1b;}</style></defs><path class="cls-1" d="M248.47,72.91c-4.83,0-9.27,1.02-13.18,2.93-1.9,.93-4.11-.41-4.11-2.53v-4.68c0-3.13-2.54-5.67-5.67-5.67l-168.13,.02c-3.13,0-5.67,2.54-5.67,5.67v26.66c0,56.91,24.21,69.81,40.38,100.47,.98,1.86,2.91,3.03,5.01,3.03h7.08s38.49,0,72.24,0h9.63c2.1,0,4.03-1.17,5.01-3.02,4.72-8.95,10.13-16.39,15.42-23.86,3.46-4.88,7.43-9.37,11.85-13.38,9.06-8.22,20.76-17.68,28.98-22.84,16.62-10.44,25.4-22.71,25.4-35.49,0-16.59-9.52-27.31-24.26-27.31Zm-7.74,52.29c-2.46,1.55-4.83,3.21-7.1,5.05-2,1.62-4.94-.07-4.56-2.62,.69-4.71,1.23-9.83,1.59-15.4,.34-3.35,.57-6.88,.69-10.62,.05-1.38,.25-2.77,.71-4.07,2.77-7.89,8.46-12.18,16.41-12.18,9.77,0,11.81,8.08,11.81,14.87,0,8.16-6.93,17.04-19.55,24.97Z"/><path class="cls-1" d="M230.35,203.38H55.99c-4.52,0-5.94,6.1-1.89,8.1l33.23,16.36c1.76,.87,3.7,1.32,5.66,1.32h100.35c1.96,0,3.9-.45,5.66-1.32l33.23-16.36c4.05-2,2.63-8.1-1.89-8.1Z"/></svg>