<?xml version="1.0" encoding="UTF-8"?><svg id="Layer_1" xmlns="http://www.w3.org/2000/svg" viewBox="0 0 283.46 283.46"><defs><style>.cls-1{fill:#1d1d1b;}</style></defs><path class="cls-1" d="M248.03,97.41v-14.43c0-3.13-2.54-5.67-5.67-5.67h-17.44c-1.57,0-2.83-1.27-2.83-2.83v-26.24c0-7.14-5.81-12.92-12.95-12.88h0c-7.09,.04-12.81,5.79-12.81,12.88v26.24c0,1.57-1.27,2.83-2.83,2.83H89.85c-1.57,0-2.83-1.27-2.83-2.83v-26.17c0-7.11-5.77-12.88-12.88-12.88h0c-7.11,0-12.88,5.77-12.88,12.88v26.17c0,1.57-1.27,2.83-2.83,2.83h-17.31c-3.13,0-5.67,2.54-5.67,5.67v14.43c0,3.13,2.54,5.67,5.67,5.67h17.31c1.57,0,2.83,1.27,2.83,2.83v20.1c0,1.57-1.27,2.83-2.83,2.83h-17.31c-3.13,0-5.67,2.54-5.67,5.67v14.43c0,3.13,2.54,5.67,5.67,5.67h17.31c1.57,0,2.83,1.27,2.83,2.83v67.88c0,2.1-.07,3.81-.21,5.13-.14,1.33-.35,2.41-.63,3.25-.28,.84-.7,1.47-1.26,1.89-.56,.42-1.33,.77-2.3,1.05l-3.77,1.05c-.98,.28-1.71,.87-2.2,1.78-.49,.91-.73,1.92-.73,3.04,0,1.96,.49,3.32,1.47,4.08,.98,.77,2.65,1.22,5.03,1.36l3.77,.21h31.84c5.45,0,8.17-1.81,8.17-5.45,0-2.93-1.75-4.75-5.24-5.45-1.96-.28-3.49-.59-4.61-.94-1.12-.35-1.92-.94-2.41-1.78-.49-.84-.8-2.02-.94-3.56-.14-1.54-.21-3.63-.21-6.28v.63c0-30.19,24.47-54.66,54.66-54.66h0c30.19,0,54.66,24.47,54.66,54.66h0c0,2.1-.07,3.81-.21,5.13-.14,1.33-.35,2.41-.63,3.25-.28,.84-.7,1.47-1.26,1.89-.56,.42-1.33,.77-2.3,1.05l-3.77,1.05c-.98,.28-1.71,.87-2.2,1.78-.49,.91-.73,1.92-.73,3.04,0,1.96,.49,3.32,1.47,4.08,.98,.77,2.65,1.22,5.03,1.36l3.77,.21h31.84c5.45,0,8.17-1.81,8.17-5.45,0-2.93-1.75-4.75-5.24-5.45-1.96-.28-3.49-.59-4.61-.94-1.12-.35-1.92-.94-2.41-1.78-.49-.84-.8-2.02-.94-3.56-.14-1.54-.21-3.63-.21-6.28v-67.26c0-1.57,1.27-2.83,2.83-2.83h17.44c3.13,0,5.67-2.54,5.67-5.67v-14.43c0-3.13-2.54-5.67-5.67-5.67h-17.44c-1.57,0-2.83-1.27-2.83-2.83v-20.1c0-1.57,1.27-2.83,2.83-2.83h17.44c3.13,0,5.67-2.54,5.67-5.67Zm-54.54,31.43H89.85c-1.57,0-2.83-1.27-2.83-2.83v-20.1c0-1.57,1.27-2.83,2.83-2.83h103.64c1.57,0,2.83,1.27,2.83,2.83v20.1c0,1.57-1.27,2.83-2.83,2.83Z"/></svg>