<?xml version="1.0" encoding="UTF-8" standalone="no"?>
<svg
   id="Layer_1"
   viewBox="0 0 283.46 283.46"
   version="1.1"
   width="283.45999"
   height="283.45999"
   sodipodi:docname="GentGemapt_Straat.svg"
   inkscape:version="1.3.1 (9b9bdc1480, 2023-11-25, custom)"
   xmlns:inkscape="http://www.inkscape.org/namespaces/inkscape"
   xmlns:sodipodi="http://sodipodi.sourceforge.net/DTD/sodipodi-0.dtd"
   xmlns="http://www.w3.org/2000/svg"
   xmlns:svg="http://www.w3.org/2000/svg">
  <sodipodi:namedview
     id="namedview1"
     pagecolor="#ffffff"
     bordercolor="#000000"
     borderopacity="0.25"
     inkscape:showpageshadow="2"
     inkscape:pageopacity="0.0"
     inkscape:pagecheckerboard="0"
     inkscape:deskcolor="#d1d1d1"
     inkscape:zoom="2.6494073"
     inkscape:cx="208.72593"
     inkscape:cy="105.68401"
     inkscape:window-width="2504"
     inkscape:window-height="1376"
     inkscape:window-x="0"
     inkscape:window-y="0"
     inkscape:window-maximized="1"
     inkscape:current-layer="Layer_1" />
  <defs
     id="defs1">
    <style
       id="style1">.cls-1{fill:#1d1d1b;}</style>
  </defs>
  <path
     id="path1"
     class="cls-1"
     d="m 41.060547,35.390625 c -3.129994,0 -5.669922,2.539928 -5.669922,5.669922 V 242.35938 c 0,3.12998 2.539928,5.66992 5.669922,5.66992 H 59.425781 V 35.390625 Z m 22.224609,0 V 248.0293 h 71.017574 c 1.57,0 2.83008,-1.27008 2.83008,-2.83008 V 230.0293 c 0,-1.57 1.27008,-2.83008 2.83008,-2.83008 h 1.53906 c 1.57,0 2.83008,1.27008 2.83008,2.83008 v 15.16992 c 0,1.57 1.27008,2.83008 2.83008,2.83008 h 71.58984 V 35.400391 c -23.86328,0.02031 -47.72687,0.0293 -71.58984,0.0293 -1.57,0 -2.83008,1.27008 -2.83008,2.830078 v 15.169922 c 0,1.569996 -1.27008,2.830078 -2.83008,2.830078 h -1.53906 c -1.57,0 -2.83008,-1.270082 -2.83008,-2.830078 V 38.220703 c 0,-1.569996 -1.27008,-2.830078 -2.83008,-2.830078 z m 178.925784,0 c -6.53311,0.01313 -13.06642,0.0012 -19.59961,0.0078 V 248.0293 h 19.59961 c 3.12998,0 5.66992,-2.53994 5.66992,-5.66992 V 41.060547 c 0,-3.129994 -2.53994,-5.669922 -5.66992,-5.669922 z M 139.95312,68.269531 h 1.53907 c 1.57,0 2.83008,1.270082 2.83008,2.830078 v 22.060547 c 0,1.569998 -1.27008,2.830078 -2.83008,2.830078 h -1.53907 c -1.56998,0 -2.83007,-1.27008 -2.83007,-2.830078 V 71.099609 c 0,-1.569996 1.27009,-2.830078 2.83007,-2.830078 z M 139.94336,108 h 1.53906 c 1.57,0 2.83008,1.27008 2.83008,2.83008 v 22.06054 c 0,1.57 -1.27008,2.83008 -2.83008,2.83008 h -1.53906 c -1.57,0 -2.83008,-1.27008 -2.83008,-2.83008 v -22.06054 c 0,-1.57 1.27008,-2.83008 2.83008,-2.83008 z m 0.01,39.73047 h 1.53907 c 1.57,0 2.83008,1.27008 2.83008,2.83008 v 22.05859 c 0,1.57 -1.27008,2.83008 -2.83008,2.83008 h -1.53907 c -1.56998,0 -2.83007,-1.27008 -2.83007,-2.83008 v -22.05859 c 0,-1.57 1.27009,-2.83008 2.83007,-2.83008 z m -0.01,39.74023 h 1.53906 c 1.57,0 2.83008,1.27008 2.83008,2.83008 v 22.0586 c 0,1.56998 -1.27008,2.83007 -2.83008,2.83007 h -1.53906 c -1.57,0 -2.83008,-1.27009 -2.83008,-2.83007 v -22.0586 c 0,-1.57 1.27008,-2.83008 2.83008,-2.83008 z" />
</svg>
