<?xml version="1.0" encoding="utf-8"?>
<!-- Generator: Adobe Illustrator 26.5.0, SVG Export Plug-In . SVG Version: 6.00 Build 0)  -->
<svg version="1.1" id="Layer_1" xmlns="http://www.w3.org/2000/svg" xmlns:xlink="http://www.w3.org/1999/xlink" x="0px" y="0px"
	 viewBox="0 0 283.5 283.5" style="enable-background:new 0 0 283.5 283.5;" xml:space="preserve">
<style type="text/css">
	.st0{fill:#1D1D1B;}
</style>
<g>
	<path class="st0" d="M116.5,105.9c1.3,1.2,2.8,2.5,4.5,3.8c1.7,1.3,3.7,2.8,6,4.5c1.7,1.3,3.7,2.6,5.9,4.1c0.2,0.1,0.5,0.3,0.7,0.5
		c0.4,0.3,0.9,0.6,1.4,0.9c2.6,1.9,4.8,3.3,6.6,4.5c1.7,1.1,3.1,2.1,4.3,3c1.1,0.9,2.1,1.6,2.9,2.3c0.8,0.7,1.6,1.3,2.4,2
		c2,1.8,3.6,3.5,4.7,5.2c0.3,0.5,0.6,1,0.9,1.5c0,0,0.1,0.1,0.1,0.1c0.1,0.2,0.2,0.5,0.3,0.7c0.1,0.1,0.1,0.3,0.2,0.4
		c0.2,0.6,0.4,1.2,0.6,1.8c0,0.1,0,0.2,0.1,0.2c0.4,1.4,0.6,2.9,0.6,4.5c0,1.1-0.1,2.1-0.3,3.1c-0.3,2-0.9,3.8-1.8,5.3
		c-1.4,2.2-3.7,4.3-6.9,6.2c-2,1.1-3,2.4-3,4c0,1.9,0.9,3.4,2.8,4.5c1.8,1.1,4.3,1.7,7.3,1.7c2,0,4-0.3,6-0.8
		c1.1-0.3,2.1-0.6,3.2-1.1c2.9-1.3,5.5-3,7.6-5.2c2.2-2.2,3.9-4.7,5.3-7.7c1.3-2.9,1.9-7.7,2-9.8c0-2.1,0-3.9,0-4.4
		c0-4.2-1.1-8.4-2.7-12.2l0,0c-0.9-2.1-2-4-3.3-5.9c-0.1-0.1-0.2-0.3-0.3-0.4c-1-1.4-2.1-2.8-3.4-4c-1.2-1.2-2.4-2.3-3.6-3.3
		c-1.2-1-2.5-2.1-4.1-3.3c-0.3-0.2-0.6-0.5-0.9-0.7c-0.1-0.1-0.2-0.2-0.3-0.2c-1.2-0.9-2.6-1.9-4.2-3c-2.1-1.4-4.6-3.1-7.7-5.1
		c-5.3-3.4-9.6-6.4-12.9-8.9s-5.9-4.8-7.8-7c-1.9-2.1-3.1-4.2-3.8-6.2c-0.7-2-1-4.2-1-6.8c0-4.8,1.5-8.6,4.5-11.6
		c3-3,6.9-4.5,11.8-4.5c4.9,0,8.6,1.4,11.6,4.2c3,2.8,4.5,6.4,4.5,10.9c0,3.3-0.7,6.1-2.1,8.3c-1.4,2.2-3.7,4.3-6.9,6.2
		c-2,1.1-3,2.4-3,4c0,1.9,0.9,3.4,2.8,4.5c1.8,1.1,4.3,1.7,7.3,1.7s6.2-0.6,9.1-1.9c2.9-1.3,5.5-3,7.6-5.2c2.2-2.2,3.9-4.7,5.3-7.7
		c1.3-2.9,2-6,2-9.3c0-8.6-3.8-15.2-11.3-19.7c2.8-0.9,4.9-2.3,6.3-4.2c1.4-1.8,2.1-4.1,2.1-6.8c0-2.7-0.8-4.7-2.3-6.2
		c-1.5-1.5-3.6-2.2-6.3-2.2c-2.2,0-3.9,0.6-5.1,1.7c-1.1,1.1-2,3.1-2.5,6.1c-0.7,3.2-2,4.8-4,4.8c-0.9,0-1.7-0.1-2.4-0.4
		c-4.5-1.1-8.9-1.6-13.1-1.6c-5.7,0-10.9,0.8-15.6,2.4s-8.7,3.8-12.1,6.7c-3.4,2.9-6,6.3-7.9,10.4c-1.9,4-2.8,8.5-2.8,13.2
		c0,8.5,3.4,16.4,10.1,23.7C114.1,103.5,115.3,104.7,116.5,105.9z"/>
	<path class="st0" d="M166.9,188.1c-1.3-1.2-2.8-2.5-4.5-3.8c-1.7-1.3-3.7-2.8-6-4.5c-1.7-1.3-3.7-2.6-5.9-4.1
		c-0.2-0.2-0.5-0.3-0.7-0.5c-0.4-0.3-0.9-0.6-1.4-0.9c-2.6-1.9-4.8-3.4-6.6-4.5c-1.7-1.1-3.1-2.1-4.3-3c-1.1-0.9-2.1-1.6-2.9-2.3
		c-0.8-0.7-1.6-1.3-2.4-2c-2-1.8-3.6-3.5-4.7-5.2c-0.3-0.5-0.6-1-0.9-1.5c0,0-0.1-0.1-0.1-0.1c-0.1-0.2-0.2-0.5-0.3-0.7
		c-0.1-0.1-0.1-0.3-0.2-0.4c-0.2-0.6-0.4-1.2-0.6-1.8c0-0.1,0-0.2-0.1-0.2c-0.8-3-0.8-5.6-0.3-7.6c0.3-2,0.9-3.8,1.8-5.3
		c1.4-2.2,3.7-4.3,6.9-6.2c2-1.1,3-2.4,3-4c0-1.9-0.9-3.3-2.8-4.5c-1.9-1.1-4.3-1.7-7.4-1.7c-2,0-4,0.3-6,0.8
		c-1.1,0.3-2.1,0.6-3.2,1.1c-2.9,1.3-5.5,3-7.6,5.2s-3.9,4.7-5.3,7.7c-1.3,2.9-1.9,7.7-2,9.8c-0.1,2.1-0.1,3.8-0.1,4.4
		c0,4.2,1.1,8.3,2.7,12.2c0.9,2.1,2,4,3.3,5.9c0.1,0.1,0.2,0.3,0.3,0.4c1,1.4,2.1,2.8,3.4,4c1.2,1.2,2.4,2.3,3.6,3.3
		c1.2,1,2.5,2.1,4.1,3.3c0.3,0.2,0.6,0.5,0.9,0.7c0.1,0.1,0.2,0.2,0.3,0.2c1.2,0.9,2.6,1.9,4.2,3c2.1,1.4,4.6,3.1,7.6,5.1
		c5.3,3.4,9.6,6.4,12.9,8.9s5.9,4.8,7.8,7c1.9,2.1,3.1,4.2,3.8,6.2c0.7,2,1,4.2,1,6.8c0,4.8-1.5,8.6-4.5,11.6c-3,3-6.9,4.5-11.8,4.5
		c-4.9,0-8.6-1.4-11.6-4.2c-3-2.8-4.5-6.4-4.5-10.9c0-3.3,0.7-6.1,2.1-8.3c1.4-2.2,3.7-4.3,6.9-6.2c2-1.1,3-2.4,3-4
		c0-1.9-0.9-3.4-2.8-4.5c-1.8-1.1-4.3-1.7-7.3-1.7s-6.2,0.6-9.1,1.9c-2.9,1.3-5.5,3-7.7,5.2s-3.9,4.7-5.3,7.7c-1.3,2.9-2,6-2,9.3
		c0,8.6,6.9,16.6,11.3,19.7c4.4,3.1,8,5.2,14.1,7.2l0,0c4.5,1.1,8.9,1.6,13.1,1.6c5.7,0,10.9-0.8,15.6-2.4c4.7-1.6,8.7-3.8,12.1-6.7
		c3.4-2.8,6-6.3,7.9-10.3c1.9-4.1,2.8-8.5,2.8-13.2c0-8.5-3.4-16.4-10.1-23.7C169.4,190.5,168.2,189.3,166.9,188.1z"/>
</g>
</svg>
