<?xml version="1.0" encoding="UTF-8"?><svg id="Layer_1" xmlns="http://www.w3.org/2000/svg" viewBox="0 0 283.46 283.46"><defs><style>.cls-1{fill:#610345;}</style></defs><path class="cls-1" d="M193.56,35.88l-46.3,22.79c-1.94,.95-3.17,2.93-3.17,5.09v72.13c0,1.57,1.27,2.83,2.83,2.83h13.48c1.57,0,2.83-1.27,2.83-2.83v-46.38c0-1.57,1.27-2.83,2.83-2.83h19.67c1.57,0,2.83,1.27,2.83,2.83v46.38c0,1.57,1.27,2.83,2.83,2.83h53.78c1.57,0,2.83-1.27,2.83-2.83V63.76c0-2.16-1.23-4.13-3.17-5.09l-46.3-22.79c-1.58-.78-3.43-.78-5.01,0Zm34.62,76.22h-19.67c-1.57,0-2.83-1.27-2.83-2.83v-19.67c0-1.57,1.27-2.83,2.83-2.83h19.67c1.57,0,2.83,1.27,2.83,2.83v19.67c0,1.57-1.27,2.83-2.83,2.83Z"/><path d="M83.64,36.59l-45.05,22.18c-1.94,.95-3.17,2.93-3.17,5.09v72.13c0,1.57,1.27,2.83,2.83,2.83h13.48c1.57,0,2.83-1.27,2.83-2.83v-46.38c0-1.57,1.27-2.83,2.83-2.83h19.67c1.57,0,2.83,1.27,2.83,2.83v46.38c0,1.57,1.27,2.83,2.83,2.83h53.78c1.57,0,2.83-1.27,2.83-2.83V63.85c0-2.16-1.23-4.13-3.17-5.09l-45.05-22.18c-2.37-1.17-5.14-1.17-7.51,0Zm35.87,75.6h-19.67c-1.57,0-2.83-1.27-2.83-2.83v-19.67c0-1.57,1.27-2.83,2.83-2.83h19.67c1.57,0,2.83,1.27,2.83,2.83v19.67c0,1.57-1.27,2.83-2.83,2.83Z"/><path d="M193.56,144.87l-46.3,22.79c-1.94,.95-3.17,2.93-3.17,5.09v72.13c0,1.57,1.27,2.83,2.83,2.83h13.48c1.57,0,2.83-1.27,2.83-2.83v-46.38c0-1.57,1.27-2.83,2.83-2.83h19.67c1.57,0,2.83,1.27,2.83,2.83v46.38c0,1.57,1.27,2.83,2.83,2.83h53.78c1.57,0,2.83-1.27,2.83-2.83v-72.13c0-2.16-1.23-4.13-3.17-5.09l-46.3-22.79c-1.58-.78-3.43-.78-5.01,0Zm34.62,76.22h-19.67c-1.57,0-2.83-1.27-2.83-2.83v-19.67c0-1.57,1.27-2.83,2.83-2.83h19.67c1.57,0,2.83,1.27,2.83,2.83v19.67c0,1.57-1.27,2.83-2.83,2.83Z"/><path d="M83.64,145.58l-45.05,22.18c-1.94,.95-3.17,2.93-3.17,5.09v72.13c0,1.57,1.27,2.83,2.83,2.83h13.48c1.57,0,2.83-1.27,2.83-2.83v-46.38c0-1.57,1.27-2.83,2.83-2.83h19.67c1.57,0,2.83,1.27,2.83,2.83v46.38c0,1.57,1.27,2.83,2.83,2.83h53.78c1.57,0,2.83-1.27,2.83-2.83v-72.13c0-2.16-1.23-4.13-3.17-5.09l-45.05-22.18c-2.37-1.17-5.14-1.17-7.51,0Zm35.87,75.6h-19.67c-1.57,0-2.83-1.27-2.83-2.83v-19.67c0-1.57,1.27-2.83,2.83-2.83h19.67c1.57,0,2.83,1.27,2.83,2.83v19.67c0,1.57-1.27,2.83-2.83,2.83Z"/></svg>