<?xml version="1.0" encoding="utf-8"?>
<!-- Generator: Adobe Illustrator 26.5.0, SVG Export Plug-In . SVG Version: 6.00 Build 0)  -->
<svg version="1.1" id="Layer_3" xmlns="http://www.w3.org/2000/svg" xmlns:xlink="http://www.w3.org/1999/xlink" x="0px" y="0px"
	 viewBox="0 0 283.5 283.5" style="enable-background:new 0 0 283.5 283.5;" xml:space="preserve">
<style type="text/css">
	.st0{fill:#610345;}
</style>
<g>
	<path class="st0" d="M124.8,37.4L38.6,79.9c-1.9,1-3.2,2.9-3.2,5.1v160c0,1.6,1.3,2.8,2.8,2.8H70c1.6,0,2.8-1.3,2.8-2.8v-29.3
		c0-1.6,1.3-2.8,2.8-2.8h13c1.6,0,2.8,1.3,2.8,2.8V245c0,1.6,1.3,2.8,2.8,2.8H126c1.6,0,2.8-1.3,2.8-2.8V81.4V40h0
		C128.9,37.9,126.7,36.5,124.8,37.4z M72.8,192.7c0,0.8-0.6,1.4-1.4,1.4H55.5c-0.8,0-1.4-0.6-1.4-1.4v-15.8c0-0.8,0.6-1.4,1.4-1.4
		h15.8c0.8,0,1.4,0.6,1.4,1.4V192.7z M72.8,155.4c0,0.8-0.6,1.4-1.4,1.4H55.5c-0.8,0-1.4-0.6-1.4-1.4v-15.8c0-0.8,0.6-1.4,1.4-1.4
		h15.8c0.8,0,1.4,0.6,1.4,1.4V155.4z M72.8,118c0,0.8-0.6,1.4-1.4,1.4H55.5c-0.8,0-1.4-0.6-1.4-1.4v-15.8c0-0.8,0.6-1.4,1.4-1.4
		h15.8c0.8,0,1.4,0.6,1.4,1.4V118z M110.2,192.7c0,0.8-0.6,1.4-1.4,1.4H92.9c-0.8,0-1.4-0.6-1.4-1.4v-15.9c0-0.8,0.6-1.4,1.4-1.4
		h15.8c0.8,0,1.4,0.6,1.4,1.4V192.7z M110.2,155.3c0,0.8-0.6,1.4-1.4,1.4H92.9c-0.8,0-1.4-0.6-1.4-1.4v-15.9c0-0.8,0.6-1.4,1.4-1.4
		h15.8c0.8,0,1.4,0.6,1.4,1.4V155.3z M110.2,118c0,0.8-0.6,1.4-1.4,1.4H92.9c-0.8,0-1.4-0.6-1.4-1.4v-15.9c0-0.8,0.6-1.4,1.4-1.4
		h15.8c0.8,0,1.4,0.6,1.4,1.4V118z"/>
	<path class="st0" d="M244.8,117.2L244.8,117.2l-86.1-42.4c-1.9-0.9-4.1,0.4-4.1,2.5v41.4V245c0,1.6,1.3,2.8,2.8,2.8h31.7
		c1.6,0,2.8-1.3,2.8-2.8v-29.3c0-1.6,1.3-2.8,2.8-2.8h13c1.6,0,2.8,1.3,2.8,2.8V245c0,1.6,1.3,2.8,2.8,2.8h31.7
		c1.6,0,2.8-1.3,2.8-2.8V122.3C248,120.1,246.8,118.2,244.8,117.2z M192,192.7c0,0.8-0.6,1.4-1.4,1.4h-15.9c-0.8,0-1.4-0.6-1.4-1.4
		v-15.8c0-0.8,0.6-1.4,1.4-1.4h15.9c0.8,0,1.4,0.6,1.4,1.4V192.7z M192,155.3c0,0.8-0.6,1.4-1.4,1.4h-15.9c-0.8,0-1.4-0.6-1.4-1.4
		v-15.8c0-0.8,0.6-1.4,1.4-1.4h15.9c0.8,0,1.4,0.6,1.4,1.4V155.3z M229.4,192.7c0,0.8-0.6,1.4-1.4,1.4h-15.9c-0.8,0-1.4-0.6-1.4-1.4
		v-15.8c0-0.8,0.6-1.4,1.4-1.4h15.9c0.8,0,1.4,0.6,1.4,1.4V192.7z M229.4,155.3c0,0.8-0.6,1.4-1.4,1.4h-15.9c-0.8,0-1.4-0.6-1.4-1.4
		v-15.8c0-0.8,0.6-1.4,1.4-1.4h15.9c0.8,0,1.4,0.6,1.4,1.4V155.3z"/>
</g>
</svg>
