<?xml version="1.0" encoding="UTF-8"?><svg id="Layer_1" xmlns="http://www.w3.org/2000/svg" viewBox="0 0 283.46 283.46"><defs><style>.cls-1{fill:#610345;}</style></defs><path class="cls-1" d="M199.74,90.12v-23.88c0-2.16-1.23-4.13-3.16-5.08l-50.01-24.66c-3.17-1.56-6.88-1.56-10.04,0l-50.14,24.81c-1.93,.96-3.15,2.93-3.15,5.08v23.73c0,1.57-1.27,2.83-2.83,2.83H41.1c-3.13,0-5.67,2.54-5.67,5.67V242.4c0,3.13,2.54,5.67,5.67,5.67H110.19c3.13,0,5.67-2.54,5.67-5.67v-38.65c0-14.29,11.58-25.87,25.87-25.87h0c14.29,0,25.87,11.58,25.87,25.87v38.65c0,3.13,2.54,5.67,5.67,5.67h68.9c3.13,0,5.67-2.54,5.67-5.67V98.62c0-3.13-2.54-5.67-5.67-5.67h-39.6c-1.57,0-2.83-1.27-2.83-2.83ZM69.31,224.59c0,.78-.63,1.42-1.42,1.42h-15.85c-.78,0-1.42-.63-1.42-1.42v-15.85c0-.78,.63-1.42,1.42-1.42h15.85c.78,0,1.42,.63,1.42,1.42v15.85Zm0-32.71c0,.78-.63,1.42-1.42,1.42h-15.85c-.78,0-1.42-.63-1.42-1.42v-15.85c0-.78,.63-1.42,1.42-1.42h15.85c.78,0,1.42,.63,1.42,1.42v15.85Zm0-32.71c0,.78-.63,1.42-1.42,1.42h-15.85c-.78,0-1.42-.63-1.42-1.42v-15.85c0-.78,.63-1.42,1.42-1.42h15.85c.78,0,1.42,.63,1.42,1.42v15.85Zm0-32.89c0,.78-.63,1.42-1.42,1.42h-15.85c-.78,0-1.42-.63-1.42-1.42v-15.85c0-.78,.63-1.42,1.42-1.42h15.85c.78,0,1.42,.63,1.42,1.42v15.85Zm32.61,98.31c0,.78-.63,1.42-1.42,1.42h-15.85c-.78,0-1.42-.63-1.42-1.42v-15.85c0-.78,.63-1.42,1.42-1.42h15.85c.78,0,1.42,.63,1.42,1.42v15.85Zm0-32.71c0,.78-.63,1.42-1.42,1.42h-15.85c-.78,0-1.42-.63-1.42-1.42v-15.85c0-.78,.63-1.42,1.42-1.42h15.85c.78,0,1.42,.63,1.42,1.42v15.85Zm0-32.71c0,.78-.63,1.42-1.42,1.42h-15.85c-.78,0-1.42-.63-1.42-1.42v-15.85c0-.78,.63-1.42,1.42-1.42h15.85c.78,0,1.42,.63,1.42,1.42v15.85Zm0-32.89c0,.78-.63,1.42-1.42,1.42h-15.85c-.78,0-1.42-.63-1.42-1.42v-15.85c0-.78,.63-1.42,1.42-1.42h15.85c.78,0,1.42,.63,1.42,1.42v15.85Zm32.61,32.89c0,.78-.63,1.42-1.42,1.42h-15.85c-.78,0-1.42-.63-1.42-1.42v-15.85c0-.78,.63-1.42,1.42-1.42h15.85c.78,0,1.42,.63,1.42,1.42v15.85Zm7.21-50.15c-8.87,0-16.06-7.19-16.06-16.06s7.19-16.06,16.06-16.06h0c8.87,0,16.06,7.19,16.06,16.06s-7.19,16.06-16.06,16.06h0Zm25.4,50.26c0,.78-.63,1.42-1.42,1.42h-15.85c-.78,0-1.42-.63-1.42-1.42v-15.85c0-.78,.63-1.42,1.42-1.42h15.85c.78,0,1.42,.63,1.42,1.42v15.85Zm32.61,65.32c0,.78-.63,1.42-1.42,1.42h-15.85c-.78,0-1.42-.63-1.42-1.42v-15.85c0-.78,.63-1.42,1.42-1.42h15.85c.78,0,1.42,.63,1.42,1.42v15.85Zm0-32.71c0,.78-.63,1.42-1.42,1.42h-15.85c-.78,0-1.42-.63-1.42-1.42v-15.85c0-.78,.63-1.42,1.42-1.42h15.85c.78,0,1.42,.63,1.42,1.42v15.85Zm0-32.71c0,.78-.63,1.42-1.42,1.42h-15.85c-.78,0-1.42-.63-1.42-1.42v-15.85c0-.78,.63-1.42,1.42-1.42h15.85c.78,0,1.42,.63,1.42,1.42v15.85Zm0-32.89c0,.78-.63,1.42-1.42,1.42h-15.85c-.78,0-1.42-.63-1.42-1.42v-15.85c0-.78,.63-1.42,1.42-1.42h15.85c.78,0,1.42,.63,1.42,1.42v15.85Zm32.61,98.31c0,.78-.63,1.42-1.42,1.42h-15.85c-.78,0-1.42-.63-1.42-1.42v-15.85c0-.78,.63-1.42,1.42-1.42h15.85c.78,0,1.42,.63,1.42,1.42v15.85Zm0-32.71c0,.78-.63,1.42-1.42,1.42h-15.85c-.78,0-1.42-.63-1.42-1.42v-15.85c0-.78,.63-1.42,1.42-1.42h15.85c.78,0,1.42,.63,1.42,1.42v15.85Zm0-32.71c0,.78-.63,1.42-1.42,1.42h-15.85c-.78,0-1.42-.63-1.42-1.42v-15.85c0-.78,.63-1.42,1.42-1.42h15.85c.78,0,1.42,.63,1.42,1.42v15.85Zm0-32.89c0,.78-.63,1.42-1.42,1.42h-15.85c-.78,0-1.42-.63-1.42-1.42v-15.85c0-.78,.63-1.42,1.42-1.42h15.85c.78,0,1.42,.63,1.42,1.42v15.85Z"/></svg>