<?xml version="1.0" encoding="UTF-8"?><svg id="Layer_1" xmlns="http://www.w3.org/2000/svg" viewBox="0 0 283.46 283.46"><defs><style>.cls-1{fill:#610345;}</style></defs><path class="cls-1" d="M195.3,50.84c-18.11,8.24-33.95,13.79-50.93,1.38-1.13-.83-1.81-2.14-1.81-3.54h0c0-6.63-4.85-12.45-11.44-13.17-7.76-.84-14.32,5.22-14.32,12.8V225.33c0,2.1-.07,3.81-.21,5.13-.14,1.33-.35,2.41-.63,3.25-.28,.84-.7,1.47-1.26,1.89-.56,.42-1.33,.77-2.3,1.05l-3.77,1.05c-.98,.28-1.71,.87-2.2,1.78-.49,.91-.73,1.92-.73,3.04,0,1.96,.49,3.32,1.47,4.08,.98,.77,2.65,1.22,5.03,1.36l3.77,.21h31.84c5.45,0,8.17-1.81,8.17-5.45,0-2.93-1.75-4.75-5.24-5.45-1.96-.28-3.49-.59-4.61-.94-1.12-.35-1.92-.94-2.41-1.78-.49-.84-.8-2.02-.94-3.56-.14-1.54-.21-3.63-.21-6.29v-82.77c0-4.16,4.35-6.95,8.09-5.12,14.67,7.16,28.78,2.01,44.64-5.21,15.82-7.2,29.99-12.34,44.65-5.2,3.74,1.82,8.09-.97,8.09-5.12V55.17c0-2.83-1.39-5.52-3.77-7.07-16.22-10.59-31.6-5.16-48.97,2.74Z"/></svg>