<?xml version="1.0" encoding="UTF-8"?><svg id="Layer_1" xmlns="http://www.w3.org/2000/svg" viewBox="0 0 283.46 283.46"><defs><style>.cls-1{fill:#610345;}</style></defs><path class="cls-1" d="M235.89,38.22v15.21c0,1.57-1.27,2.83-2.83,2.83h-22.28c-1.57,0-2.83-1.27-2.83-2.83v-15.17c0-1.57-1.27-2.83-2.83-2.83H78.36c-1.57,0-2.83,1.27-2.83,2.83v15.17c0,1.57-1.27,2.83-2.83,2.83h-22.48c-1.57,0-2.83-1.27-2.83-2.83v-15.21c0-1.57-1.27-2.83-2.83-2.83h-3.5c-3.13,0-5.67,2.54-5.67,5.67V242.36c0,3.13,2.54,5.67,5.67,5.67h3.5c1.57,0,2.83-1.27,2.83-2.83v-15.17c0-1.57,1.27-2.83,2.83-2.83h22.48c1.57,0,2.83,1.27,2.83,2.83v15.17c0,1.57,1.27,2.83,2.83,2.83h126.75c1.57,0,2.83-1.27,2.83-2.83v-15.17c0-1.57,1.27-2.83,2.83-2.83h22.28c1.57,0,2.83,1.27,2.83,2.83v15.17c0,1.57,1.27,2.83,2.83,2.83h3.5c3.13,0,5.67-2.54,5.67-5.67V41.06c0-3.13-2.54-5.67-5.67-5.67h-3.5c-1.57,0-2.83,1.27-2.83,2.83Zm0,32.88v22.06c0,1.57-1.27,2.83-2.83,2.83h-22.28c-1.57,0-2.83-1.27-2.83-2.83v-22.06c0-1.57,1.27-2.83,2.83-2.83h22.28c1.57,0,2.83,1.27,2.83,2.83Zm-27.95,61.79v-22.06c0-1.57,1.27-2.83,2.83-2.83h22.28c1.57,0,2.83,1.27,2.83,2.83v22.06c0,1.57-1.27,2.83-2.83,2.83h-22.28c-1.57,0-2.83-1.27-2.83-2.83Zm27.95,17.67v22.06c0,1.57-1.27,2.83-2.83,2.83h-22.28c-1.57,0-2.83-1.27-2.83-2.83v-22.06c0-1.57,1.27-2.83,2.83-2.83h22.28c1.57,0,2.83,1.27,2.83,2.83ZM75.52,71.1v22.06c0,1.57-1.27,2.83-2.83,2.83h-22.48c-1.57,0-2.83-1.27-2.83-2.83v-22.06c0-1.57,1.27-2.83,2.83-2.83h22.48c1.57,0,2.83,1.27,2.83,2.83Zm-28.15,61.79v-22.06c0-1.57,1.27-2.83,2.83-2.83h22.48c1.57,0,2.83,1.27,2.83,2.83v22.06c0,1.57-1.27,2.83-2.83,2.83h-22.48c-1.57,0-2.83-1.27-2.83-2.83Zm28.15,17.67v22.06c0,1.57-1.27,2.83-2.83,2.83h-22.48c-1.57,0-2.83-1.27-2.83-2.83v-22.06c0-1.57,1.27-2.83,2.83-2.83h22.48c1.57,0,2.83,1.27,2.83,2.83Zm-28.15,61.8v-22.06c0-1.57,1.27-2.83,2.83-2.83h22.48c1.57,0,2.83,1.27,2.83,2.83v22.06c0,1.57-1.27,2.83-2.83,2.83h-22.48c-1.57,0-2.83-1.27-2.83-2.83Zm160.57,0v-22.06c0-1.57,1.27-2.83,2.83-2.83h22.28c1.57,0,2.83,1.27,2.83,2.83v22.06c0,1.57-1.27,2.83-2.83,2.83h-22.28c-1.57,0-2.83-1.27-2.83-2.83Z"/></svg>