<?xml version="1.0" encoding="utf-8"?>
<!-- Generator: Adobe Illustrator 27.0.0, SVG Export Plug-In . SVG Version: 6.00 Build 0)  -->
<svg version="1.1" id="Layer_3" xmlns="http://www.w3.org/2000/svg" xmlns:xlink="http://www.w3.org/1999/xlink" x="0px" y="0px"
	 viewBox="0 0 283.5 283.5" style="enable-background:new 0 0 283.5 283.5;" xml:space="preserve">
<style type="text/css">
	.st0{fill:#610345;}
</style>
<g>
	<path class="st0" d="M247.8,109.6l0.1-10.9c0-3.1-2.5-5.7-5.7-5.7h-39.6c-1.6,0-2.8-1.3-2.8-2.8V66.4c0-2.2-1.2-4.1-3.2-5.1
		l-50-24.7c-3.2-1.6-6.9-1.6-10,0L86.5,61.4c-1.9,1-3.2,2.9-3.2,5.1v23.7c0,1.6-1.3,2.8-2.8,2.8H41.2c-3.1,0-5.7,2.5-5.7,5.7
		l-0.1,10.9h0l0.1,132.6c0,3.1,2.5,5.7,5.7,5.7h43.1c1.5,0,2.7-1.2,2.7-2.8c0,0,0,0,0,0v-6.7c0-4,3.3-7.3,7.3-7.3
		c1.5,0,2.7-1.2,2.7-2.7v-0.1v-6.7c0-4.1,3.3-7.3,7.3-7.3c1,0,1.7-0.8,1.7-1.7v-7.9c0-4,3.3-7.3,7.3-7.3h2.3v-42.1
		c0-14.1,11-26,25.1-26.4c14.6-0.4,26.6,11.3,26.6,25.9v42.6h2.5c4,0,7.3,3.3,7.3,7.3v7.9c0,0.9,0.8,1.7,1.7,1.7
		c4,0,7.3,3.3,7.3,7.3v6.7v0.1c0,1.5,1.2,2.7,2.7,2.7c4,0,7.3,3.3,7.3,7.3v6.7c0,0,0,0,0,0c0,1.5,1.1,2.8,2.7,2.8h43.1
		c3.1,0,5.7-2.5,5.7-5.7l-0.1-132.6H247.8L247.8,109.6z M92.6,184.6c0,1.6-1.3,2.8-2.8,2.8H61.4c-1.6,0-2.8-1.3-2.8-2.8v-28.4
		c0-1.6,1.3-2.8,2.8-2.8h28.4c1.6,0,2.8,1.3,2.8,2.8V184.6z M141.7,109.6c-11.3,0-20.4-9.1-20.4-20.4s9.1-20.4,20.4-20.4
		S162,78,162,89.3S152.9,109.6,141.7,109.6z M224.9,184.6c0,1.6-1.3,2.8-2.8,2.8h-28.4c-1.6,0-2.8-1.3-2.8-2.8v-28.4
		c0-1.6,1.3-2.8,2.8-2.8h28.4c1.6,0,2.8,1.3,2.8,2.8V184.6z"/>
	<path class="st0" d="M170,214.2c1.6,0,2.8-1.3,2.8-2.8v0v-6.7v0c0-1.6-1.3-2.8-2.8-2.8h-2.5h-51.8h-2.3h0c-1.6,0-2.8,1.3-2.8,2.8v0
		v6.7c0,1.6,1.3,2.8,2.8,2.8h2.3v0h51.8v0H170z"/>
	<path class="st0" d="M191.1,236.4c-0.5-0.5-1.2-0.8-2-0.8h-21.6h-51.8H94.3c-1.6,0-2.8,1.3-2.8,2.8v6.7v0c0,0,0,0.1,0,0.1
		c0,0.1,0,0.3,0,0.4c0,0.1,0.1,0.2,0.1,0.3c0,0.1,0,0.1,0.1,0.2c0,0.1,0.1,0.2,0.2,0.3c0,0,0,0.1,0.1,0.1c0.1,0.1,0.1,0.2,0.2,0.3
		c0,0,0,0,0.1,0.1c0.1,0.1,0.2,0.2,0.3,0.3c0,0,0,0,0,0c0.1,0.1,0.2,0.2,0.4,0.3c0,0,0,0,0,0c0.4,0.2,0.9,0.4,1.4,0.4h94.8
		c0.1,0,0.3,0,0.4,0h0.1c0,0,0,0,0.1,0c0.1,0,0.1,0,0.2,0c0.1,0,0.2-0.1,0.3-0.1c0.1,0,0.1,0,0.2-0.1c0.1-0.1,0.2-0.1,0.3-0.2
		c0,0,0.1,0,0.1-0.1c0.1-0.1,0.2-0.2,0.3-0.3c0,0,0,0,0.1-0.1c0.1-0.1,0.2-0.2,0.3-0.4c0,0,0,0,0,0c0.3-0.5,0.5-1,0.5-1.6v-6.7
		C191.9,237.6,191.6,236.9,191.1,236.4z"/>
	<path class="st0" d="M101.5,221.5L101.5,221.5v6.8c0,1.6,1.3,2.8,2.8,2.8h11.4h51.8v0H179c1.6,0,2.8-1.3,2.8-2.8v0v-6.7v0
		c0-1.6-1.3-2.8-2.8-2.8h-11.5h-51.8v0h-11.4C102.8,218.7,101.5,219.9,101.5,221.5z"/>
</g>
</svg>
