<?xml version="1.0" encoding="UTF-8"?><svg id="Layer_1" xmlns="http://www.w3.org/2000/svg" viewBox="0 0 283.46 283.46"><defs><style>.cls-1{fill:#610345;}</style></defs><path class="cls-1" d="M200.23,103.93c0-21.39-12.36-43.46-16.7-64.01-.55-2.62-2.87-4.49-5.55-4.49-21.86,0-36.25,.02-36.25,.02,0,0-14.39-.01-36.25-.02-2.67,0-4.99,1.87-5.55,4.49-4.34,20.51-16.7,42.23-16.7,64.02,0,25.41,16.2,47.02,38.84,55.1,3.41,1.22,5.63,4.51,5.63,8.13v58.1c0,2.1-.07,3.81-.21,5.13-.14,1.33-.35,2.41-.63,3.25-.28,.84-.7,1.47-1.26,1.89-.56,.42-1.33,.77-2.3,1.05l-3.77,1.05c-.98,.28-1.71,.87-2.2,1.78-.49,.91-.73,1.92-.73,3.04,0,1.96,.49,3.32,1.47,4.08,.98,.77,2.65,1.22,5.03,1.36l3.77,.21h31.84c5.45,0,8.17-1.81,8.17-5.45,0-2.93-1.75-4.75-5.24-5.45-1.96-.28-3.49-.59-4.61-.94-1.12-.35-1.92-.94-2.41-1.78-.49-.84-.8-2.02-.94-3.56-.14-1.54-.21-3.63-.21-6.29v-56.73c0-3.71,2.35-7.06,5.89-8.18,23.7-7.48,40.88-29.63,40.88-55.8Z"/></svg>