<?xml version="1.0" encoding="utf-8"?>
<!-- Generator: Adobe Illustrator 26.5.0, SVG Export Plug-In . SVG Version: 6.00 Build 0)  -->
<svg version="1.1" id="Layer_1" xmlns="http://www.w3.org/2000/svg" xmlns:xlink="http://www.w3.org/1999/xlink" x="0px" y="0px"
	 viewBox="0 0 283.5 283.5" style="enable-background:new 0 0 283.5 283.5;" xml:space="preserve">
<style type="text/css">
	.st0{fill:#610345;}
</style>
<g>
	<path class="st0" d="M39.6,93.1h204.1c4.5,0,5.9-6.1,1.9-8.1l-98.3-48.4c-3.6-1.8-7.7-1.8-11.3,0L37.8,85
		C33.7,87,35.1,93.1,39.6,93.1z"/>
	<path class="st0" d="M234.8,126.3c0.1-1.5,0.5-2.7,0.9-3.6c0.5-0.8,1.3-1.4,2.4-1.8c1.1-0.3,2.6-0.7,4.6-0.9
		c3.5-0.7,5.2-2.5,5.2-5.5v0c0-3.6-2.7-5.5-8.2-5.5H208l-3.8,0.2c-2.4,0.1-4.1,0.6-5,1.4s-1.5,2.1-1.5,4.1c0,1.1,0.2,2.1,0.7,3
		c0.5,0.9,1.2,1.5,2.2,1.8l3.8,1.1c1,0.3,1.7,0.6,2.3,1s1,1,1.3,1.9c0.3,0.8,0.5,1.9,0.6,3.2c0.1,1.3,0.2,3,0.2,5.1v93.3
		c0,2.1-0.1,3.8-0.2,5.1c-0.1,1.3-0.3,2.4-0.6,3.2c-0.3,0.8-0.7,1.5-1.3,1.9s-1.3,0.8-2.3,1l-3.8,1c-1,0.3-1.7,0.9-2.2,1.8
		c-0.5,0.9-0.7,1.9-0.7,3c0,2,0.5,3.3,1.5,4.1c1,0.8,2.7,1.2,5,1.4l3.8,0.2h31.8c5.5,0,8.2-1.8,8.2-5.5c0-2.9-1.8-4.8-5.2-5.5
		c-2-0.3-3.5-0.6-4.6-0.9c-1.1-0.3-1.9-0.9-2.4-1.8c-0.5-0.8-0.8-2-0.9-3.6s-0.2-3.6-0.2-6.3v-92.1
		C234.6,130,234.7,127.9,234.8,126.3z"/>
	<path class="st0" d="M79,109.1H47.1l-3.8,0.2c-2.4,0.1-4,0.6-5,1.4c-1,0.8-1.5,2.1-1.5,4.1c0,1.1,0.2,2.1,0.7,3
		c0.5,0.9,1.2,1.5,2.2,1.8l3.8,1.1c1,0.3,1.7,0.6,2.3,1s1,1,1.3,1.9c0.3,0.8,0.5,1.9,0.6,3.2c0.1,1.3,0.2,3,0.2,5.1v93.3
		c0,2.1-0.1,3.8-0.2,5.1c-0.1,1.3-0.3,2.4-0.6,3.2c-0.3,0.8-0.7,1.5-1.3,1.9s-1.3,0.8-2.3,1l-3.8,1c-1,0.3-1.7,0.9-2.2,1.8
		c-0.5,0.9-0.7,1.9-0.7,3c0,2,0.5,3.3,1.5,4.1c1,0.8,2.6,1.2,5,1.4l3.8,0.2H79c5.5,0,8.2-1.8,8.2-5.5c0-2.9-1.8-4.8-5.2-5.5
		c-2-0.3-3.5-0.6-4.6-0.9c-1.1-0.3-1.9-0.9-2.4-1.8c-0.5-0.8-0.8-2-0.9-3.6s-0.2-3.6-0.2-6.3v-92.1c0-2.6,0.1-4.8,0.2-6.3
		c0.1-1.5,0.5-2.7,0.9-3.6c0.5-0.8,1.3-1.4,2.4-1.8c1.1-0.3,2.7-0.7,4.6-0.9c3.5-0.7,5.2-2.5,5.2-5.5v0
		C87.2,111,84.4,109.1,79,109.1z"/>
	<path class="st0" d="M159.4,109.1h-31.8l-3.8,0.2c-2.4,0.1-4,0.6-5,1.4s-1.5,2.1-1.5,4.1c0,1.1,0.2,2.1,0.7,3
		c0.5,0.9,1.2,1.5,2.2,1.8l3.8,1.1c1,0.3,1.7,0.6,2.3,1s1,1,1.3,1.9c0.3,0.8,0.5,1.9,0.6,3.2c0.1,1.3,0.2,3,0.2,5.1v93.3
		c0,2.1-0.1,3.8-0.2,5.1c-0.1,1.3-0.3,2.4-0.6,3.2c-0.3,0.8-0.7,1.5-1.3,1.9s-1.3,0.8-2.3,1l-3.8,1c-1,0.3-1.7,0.9-2.2,1.8
		c-0.5,0.9-0.7,1.9-0.7,3c0,2,0.5,3.3,1.5,4.1c1,0.8,2.7,1.2,5,1.4l3.8,0.2h31.8c5.5,0,8.2-1.8,8.2-5.5c0-2.9-1.8-4.8-5.2-5.5
		c-2-0.3-3.5-0.6-4.6-0.9c-1.1-0.3-1.9-0.9-2.4-1.8c-0.5-0.8-0.8-2-0.9-3.6s-0.2-3.6-0.2-6.3v-92.1c0-2.6,0.1-4.8,0.2-6.3
		c0.1-1.5,0.5-2.7,0.9-3.6c0.5-0.8,1.3-1.4,2.4-1.8c1.1-0.3,2.6-0.7,4.6-0.9c3.5-0.7,5.2-2.5,5.2-5.5v0
		C167.6,111,164.9,109.1,159.4,109.1z"/>
</g>
</svg>
