<?xml version="1.0" encoding="UTF-8"?><svg id="Layer_1" xmlns="http://www.w3.org/2000/svg" viewBox="0 0 283.46 283.46"><defs><style>.cls-1{fill:#610345;}</style></defs><path class="cls-1" d="M38.45,248.03c-3.24,0-3.95-4.56-.86-5.53,53.22-16.77,93.06-48.07,95.78-70.45,2.77-22.76-73.86-35.86-61.72-73.78,11.59-36.22,69.63-32.52,89.36-60.11,1.24-1.73,3.24-2.73,5.36-2.73,9.83,0,36.83-.04,46.01-.01,2.25,0,3.65,2.55,2.36,4.4-20.61,29.52-53.14,28.73-56.21,56.5-3.35,30.24,81.01,37.4,88.61,72.83,5.99,27.91-25.82,65.62-35.29,76.09-1.61,1.78-3.9,2.8-6.3,2.8H38.45Z"/></svg>