<?xml version="1.0" encoding="UTF-8" standalone="no"?>
<!-- Created with Inkscape (http://www.inkscape.org/) -->

<svg
   width="29.726835mm"
   height="34.582397mm"
   viewBox="0 0 29.726835 34.582397"
   version="1.1"
   id="svg7118"
   inkscape:version="1.1.2 (1:1.1+202202050950+0a00cf5339)"
   sodipodi:docname="library.svg"
   xmlns:inkscape="http://www.inkscape.org/namespaces/inkscape"
   xmlns:sodipodi="http://sodipodi.sourceforge.net/DTD/sodipodi-0.dtd"
   xmlns="http://www.w3.org/2000/svg"
   xmlns:svg="http://www.w3.org/2000/svg">
  <sodipodi:namedview
     id="namedview7120"
     pagecolor="#ffffff"
     bordercolor="#666666"
     borderopacity="1.0"
     inkscape:pageshadow="2"
     inkscape:pageopacity="0.0"
     inkscape:pagecheckerboard="0"
     inkscape:document-units="mm"
     showgrid="false"
     fit-margin-top="0"
     fit-margin-left="0"
     fit-margin-right="0"
     fit-margin-bottom="0"
     inkscape:zoom="1.4200196"
     inkscape:cx="73.590532"
     inkscape:cy="-203.87042"
     inkscape:window-width="1895"
     inkscape:window-height="2107"
     inkscape:window-x="26"
     inkscape:window-y="23"
     inkscape:window-maximized="0"
     inkscape:current-layer="layer1" />
  <defs
     id="defs7115" />
  <g
     inkscape:label="Layer 1"
     inkscape:groupmode="layer"
     id="layer1"
     transform="translate(-80.534326,-61.710056)">
    <path
       style="display:inline;fill:#a7a7a7;fill-opacity:1;stroke:none;stroke-width:0.264583;stroke-opacity:1"
       d="m 92.88313,93.496515 c -1.93435,-2.341883 -2.44697,-2.79246 -4.24359,-3.72998 -5.13951,-2.681922 -8.00456,-7.46782 -7.97266,-13.317831 0.017,-3.115247 0.77753,-5.681272 2.36857,-7.991396 7.18915,-10.438318 22.84938,-8.087287 26.53991,3.98437 0.66477,2.174439 0.73815,5.674676 0.16417,7.831487 -1.07367,4.034476 -4.1643,7.866874 -7.72519,9.579257 -1.70809,0.821394 -2.11584,1.182354 -4.07815,3.610192 -1.19916,1.483651 -2.33164,2.697549 -2.51661,2.697549 -0.18498,0 -1.32637,-1.198642 -2.53645,-2.663648 z"
       id="path6717"
       sodipodi:nodetypes="ssssssssss" />
    <g
       id="g1818"
       transform="translate(-93.160583,-27.499491)">
      <circle
         style="fill:#ffffff;fill-opacity:1;stroke:none;stroke-width:0.872384;stroke-linecap:round;stroke-linejoin:round;stroke-miterlimit:4;stroke-dasharray:none"
         id="path998"
         cx="188.54131"
         cy="104.21734"
         r="11.921079" />
    </g>
    <path
       fill="#f7a11a"
       d="m 102.64617,71.165414 c -0.18818,-0.150545 -0.414,-0.263453 -0.67745,-0.263453 h -0.5269 v -1.091448 c 0,-0.188181 -0.0752,-0.338725 -0.18819,-0.489269 -0.30108,-0.263454 -0.75271,-0.225817 -0.82798,-0.225817 -3.010906,0.07528 -4.553979,1.129084 -5.15616,1.65599 -0.564547,-0.526906 -2.10762,-1.580718 -5.118501,-1.65599 -0.03766,0 -0.07523,0 -0.112944,0 -0.15054,0 -0.489272,0.03764 -0.677455,0.225817 -0.15054,0.112901 -0.225815,0.301088 -0.225815,0.489269 v 1.091448 H 88.60786 c -0.489254,0 -0.978526,0.338726 -0.978526,0.978539 v 9.785393 c 0,0.564542 0.451631,0.978539 0.978526,0.978539 h 4.892705 c 0.112954,0 0.338723,0.188181 0.489273,0.338724 0.301081,0.263454 0.564538,0.526907 0.978535,0.526907 h 0.602189 c 0.413989,0 0.677446,-0.263453 0.978527,-0.526907 0.188182,-0.150543 0.376374,-0.338724 0.489272,-0.338724 h 4.892699 c 0.56454,0 0.97854,-0.451632 0.97854,-0.978539 V 71.8805 c 0.0752,-0.263453 -0.0377,-0.526905 -0.26345,-0.715086 z m -6.887408,0.413998 v 0 c 0.07523,-0.07528 1.317268,-1.580718 4.742158,-1.618354 0.0752,0 0.15054,0 0.18819,0 v 9.860665 c -0.0377,0 -0.0752,0 -0.11296,0 h -0.0752 c -0.903265,0 -3.236709,0 -4.742149,0.827995 z m -0.45163,-0.639815 c 0,0 0,0 0,0 v 0 c 0,0 0,0 0,0 z m -5.381959,8.882126 v -9.860665 c 0.03757,0 0.112944,0 0.188174,0 3.462511,0.07528 4.704513,1.543082 4.742155,1.618354 v 9.070306 c -1.505459,-0.827995 -3.838886,-0.827995 -4.742155,-0.827995 h -0.07523 c -0.03766,0 -0.07523,0 -0.112944,0 z m 12.269367,1.881805 c 0,0.150546 -0.11295,0.188182 -0.18818,0.188182 h -4.892697 c -0.45163,0 -0.75272,0.30109 -1.05382,0.564542 -0.112943,0.1129 -0.338714,0.338725 -0.45163,0.338725 h -0.602171 c -0.07523,0 -0.301099,-0.188182 -0.45164,-0.338725 C 94.253313,82.1928 93.952232,81.89171 93.500601,81.89171 h -4.892704 c -0.07523,0 -0.188183,-0.07528 -0.188183,-0.188182 v -9.785391 c 0,-0.112916 0.07523,-0.188182 0.188183,-0.188182 h 0.526905 v 8.204676 c 0,0.225818 0.112943,0.376361 0.188182,0.48927 0.188173,0.188181 0.451631,0.225817 0.677446,0.225817 h 0.112943 c 2.483986,0 4.139967,0.37636 4.817422,1.05381 l 0.112944,0.112916 h 0.489272 l 0.112944,-0.112916 c 0.715086,-0.715085 2.333444,-1.05381 4.817425,-1.05381 h 0.11294 c 0.22583,0 0.48928,-0.03764 0.67746,-0.225817 0.0752,-0.07528 0.18819,-0.225817 0.18819,-0.48927 v -8.204676 h 0.52689 c 0.11295,0 0.18818,0.07528 0.18818,0.188182 v 9.785391 z"
       id="path5"
       style="display:inline;fill:#000000;fill-opacity:1;stroke-width:0.376361" />
  </g>
</svg>
