<?xml version="1.0" encoding="UTF-8" standalone="no"?>
<!-- Created with Inkscape (http://www.inkscape.org/) -->

<svg
   width="29.726835mm"
   height="34.582397mm"
   viewBox="0 0 29.726835 34.582397"
   version="1.1"
   id="svg5"
   sodipodi:docname="park.svg"
   inkscape:version="1.1.2 (1:1.1+202202050950+0a00cf5339)"
   xmlns:inkscape="http://www.inkscape.org/namespaces/inkscape"
   xmlns:sodipodi="http://sodipodi.sourceforge.net/DTD/sodipodi-0.dtd"
   xmlns="http://www.w3.org/2000/svg"
   xmlns:svg="http://www.w3.org/2000/svg">
  <sodipodi:namedview
     id="namedview7"
     pagecolor="#ffffff"
     bordercolor="#666666"
     borderopacity="1.0"
     inkscape:pageshadow="2"
     inkscape:pageopacity="0.0"
     inkscape:pagecheckerboard="false"
     inkscape:document-units="mm"
     showgrid="false"
     inkscape:zoom="5.6800788"
     inkscape:cx="55.192896"
     inkscape:cy="97.269777"
     inkscape:window-width="1895"
     inkscape:window-height="2107"
     inkscape:window-x="26"
     inkscape:window-y="23"
     inkscape:window-maximized="0"
     inkscape:current-layer="layer1"
     showguides="true"
     inkscape:guide-bbox="true"
     inkscape:snap-to-guides="false"
     fit-margin-top="0"
     fit-margin-left="0"
     fit-margin-right="0"
     fit-margin-bottom="0">
    <sodipodi:guide
       position="-75.846614,273.8697"
       orientation="0,-1"
       id="guide3861" />
    <sodipodi:guide
       position="-73.65731,277.59617"
       orientation="0,-1"
       id="guide3863" />
    <sodipodi:guide
       position="-74.798543,279.17993"
       orientation="0,-1"
       id="guide3865" />
    <sodipodi:guide
       position="-74.262862,280.7171"
       orientation="0,-1"
       id="guide3867" />
    <sodipodi:guide
       position="-74.751962,285.67796"
       orientation="0,-1"
       id="guide3869" />
    <sodipodi:guide
       position="-74.076538,289.28799"
       orientation="0,-1"
       id="guide3871" />
  </sodipodi:namedview>
  <defs
     id="defs2">
    <inkscape:path-effect
       effect="bspline"
       id="path-effect3804"
       is_visible="true"
       lpeversion="1"
       weight="33.333333"
       steps="2"
       helper_size="0"
       apply_no_weight="true"
       apply_with_weight="true"
       only_selected="false" />
  </defs>
  <g
     inkscape:label="Layer 1"
     inkscape:groupmode="layer"
     id="layer1"
     style="display:inline;opacity:1"
     transform="translate(-154.70813,-19.910475)">
    <path
       style="fill:#68af39;fill-opacity:1;stroke:#ffffff;stroke-width:0.264583;stroke-opacity:1"
       d="m 167.05693,51.696934 c -1.93435,-2.341883 -2.44697,-2.79246 -4.24359,-3.72998 -5.13951,-2.681922 -8.00456,-7.46782 -7.97266,-13.317831 0.017,-3.115247 0.77753,-5.681272 2.36857,-7.991396 7.18915,-10.438318 22.84938,-8.087287 26.53991,3.98437 0.66477,2.174439 0.73815,5.674676 0.16417,7.831487 -1.07367,4.034476 -4.1643,7.866874 -7.72519,9.579257 -1.70809,0.821394 -2.11584,1.182354 -4.07815,3.610192 -1.19916,1.483651 -2.33164,2.697549 -2.51661,2.697549 -0.18498,0 -1.32637,-1.198642 -2.53645,-2.663648 z"
       id="path13602"
       sodipodi:nodetypes="ssssssssss" />
    <circle
       style="fill:#ffffff;fill-opacity:1;stroke:none;stroke-width:0.872384;stroke-linecap:round;stroke-linejoin:round;stroke-miterlimit:4;stroke-dasharray:none"
       id="path998"
       cx="169.47447"
       cy="34.708473"
       r="11.921079" />
    <g
       id="g18146"
       style="stroke:#000000"
       transform="matrix(0.92139677,0,0,0.92139677,13.318276,2.6349929)">
      <path
         style="fill:none;stroke:#000000;stroke-width:0.8;stroke-linecap:round;stroke-linejoin:round;stroke-miterlimit:4;stroke-dasharray:none;stroke-opacity:1"
         d="m 164.31809,41.931021 h 10.23733"
         id="path13852" />
      <path
         style="fill:none;stroke:#000000;stroke-width:0.8;stroke-linecap:round;stroke-linejoin:round;stroke-miterlimit:4;stroke-dasharray:none;stroke-opacity:1"
         d="M 169.48315,41.933113 V 35.155499"
         id="path13854" />
      <path
         style="fill:none;stroke:#000000;stroke-width:0.8;stroke-linecap:round;stroke-linejoin:round;stroke-miterlimit:4;stroke-dasharray:none;stroke-opacity:1"
         d="m 169.51927,37.162573 h 2.41702 c 1.27585,-0.273888 1.24045,-1.857324 0,-2.45487 2.53279,-0.342051 2.13397,-2.039201 -0.0385,-2.384724 1.40912,-0.53683 1.55268,-2.035091 -0.69489,-2.416477 2.12772,-1.42906 0.56761,-2.833876 -0.58099,-2.446501 1.14278,-0.64637 0.7504,-2.390064 -1.15215,-2.346968"
         id="path13856"
         sodipodi:nodetypes="ccccccc" />
      <path
         style="fill:none;stroke:#000000;stroke-width:0.8;stroke-linecap:round;stroke-linejoin:round;stroke-miterlimit:4;stroke-dasharray:none;stroke-opacity:1"
         d="m 169.40194,37.162573 h -2.41702 c -1.27585,-0.273888 -1.24045,-1.857324 0,-2.45487 -2.53279,-0.342051 -2.13397,-2.039201 0.0385,-2.384724 -1.40912,-0.53683 -1.55268,-2.035091 0.69489,-2.416477 -2.12772,-1.42906 -0.45552,-2.74881 0.68725,-2.398646 -1.80155,-0.298196 -0.7662,-2.439556 1.0642,-2.394823"
         id="path15059"
         sodipodi:nodetypes="ccccccc" />
    </g>
  </g>
</svg>
