<?xml version="1.0" encoding="UTF-8" standalone="no"?>
<!-- Created with Inkscape (http://www.inkscape.org/) -->

<svg
   width="29.726835mm"
   height="34.582397mm"
   viewBox="0 0 29.726835 34.582397"
   version="1.1"
   id="svg5"
   sodipodi:docname="theatre.svg"
   inkscape:version="1.1.2 (1:1.1+202202050950+0a00cf5339)"
   xmlns:inkscape="http://www.inkscape.org/namespaces/inkscape"
   xmlns:sodipodi="http://sodipodi.sourceforge.net/DTD/sodipodi-0.dtd"
   xmlns="http://www.w3.org/2000/svg"
   xmlns:svg="http://www.w3.org/2000/svg">
  <sodipodi:namedview
     id="namedview7"
     pagecolor="#ffffff"
     bordercolor="#666666"
     borderopacity="1.0"
     inkscape:pageshadow="2"
     inkscape:pageopacity="0.0"
     inkscape:pagecheckerboard="false"
     inkscape:document-units="mm"
     showgrid="false"
     inkscape:zoom="5.6800788"
     inkscape:cx="41.8128"
     inkscape:cy="79.136226"
     inkscape:window-width="1895"
     inkscape:window-height="2107"
     inkscape:window-x="26"
     inkscape:window-y="23"
     inkscape:window-maximized="0"
     inkscape:current-layer="layer1"
     showguides="true"
     inkscape:guide-bbox="true"
     inkscape:snap-to-guides="false"
     fit-margin-top="0"
     fit-margin-left="0"
     fit-margin-right="0"
     fit-margin-bottom="0">
    <sodipodi:guide
       position="-39.786537,273.8697"
       orientation="0,-1"
       id="guide3861" />
    <sodipodi:guide
       position="-37.597233,277.59617"
       orientation="0,-1"
       id="guide3863" />
    <sodipodi:guide
       position="-38.738466,279.17993"
       orientation="0,-1"
       id="guide3865" />
    <sodipodi:guide
       position="-38.202785,280.7171"
       orientation="0,-1"
       id="guide3867" />
    <sodipodi:guide
       position="-38.691885,285.67796"
       orientation="0,-1"
       id="guide3869" />
    <sodipodi:guide
       position="-38.016461,289.28799"
       orientation="0,-1"
       id="guide3871" />
  </sodipodi:namedview>
  <defs
     id="defs2">
    <inkscape:path-effect
       effect="bspline"
       id="path-effect3804"
       is_visible="true"
       lpeversion="1"
       weight="33.333333"
       steps="2"
       helper_size="0"
       apply_no_weight="true"
       apply_with_weight="true"
       only_selected="false" />
  </defs>
  <g
     inkscape:label="Layer 1"
     inkscape:groupmode="layer"
     id="layer1"
     style="display:inline;opacity:1"
     transform="translate(-118.64805,-19.910475)">
    <g
       id="g4110"
       style="display:inline;stroke-width:0.8;stroke-miterlimit:4;stroke-dasharray:none"
       transform="translate(-13.361448)">
      <path
         style="fill:none;stroke:#ffffff;stroke-width:0.8;stroke-linecap:round;stroke-linejoin:miter;stroke-miterlimit:4;stroke-dasharray:none;stroke-opacity:1"
         d="m 76.191569,43.04077 v -3.726471 l 1.993517,-1.583758 V 36.19337 l 2.181661,-5.514369 2.122435,5.514369 v 1.537171 l 2.00207,1.583758 v 3.726471"
         id="path3873" />
      <path
         style="fill:none;stroke:#ffffff;stroke-width:0.8;stroke-linecap:round;stroke-linejoin:miter;stroke-miterlimit:4;stroke-dasharray:none;stroke-opacity:1"
         d="M 80.471557,43.04077 V 40.749397"
         id="path3908" />
      <path
         style="fill:none;stroke:#ffffff;stroke-width:0.8;stroke-linecap:round;stroke-linejoin:miter;stroke-miterlimit:4;stroke-dasharray:none;stroke-opacity:1"
         d="M 80.366747,30.679001 V 25.762619"
         id="path3910" />
      <path
         style="fill:none;stroke:#ffffff;stroke-width:0.8;stroke-linecap:round;stroke-linejoin:miter;stroke-miterlimit:4;stroke-dasharray:none;stroke-opacity:1"
         d="m 78.583937,27.622481 h 3.437618"
         id="path3912" />
    </g>
    <path
       style="fill:#ea8f3f;fill-opacity:1;stroke:#ffffff;stroke-width:0.264583;stroke-opacity:1"
       d="m 130.99685,51.696934 c -1.93435,-2.341883 -2.44697,-2.79246 -4.24359,-3.72998 -5.13951,-2.681922 -8.00456,-7.46782 -7.97266,-13.317831 0.017,-3.115247 0.77753,-5.681272 2.36857,-7.991396 7.18915,-10.438318 22.84938,-8.087287 26.53991,3.98437 0.66477,2.174439 0.73815,5.674676 0.16417,7.831487 -1.07367,4.034476 -4.1643,7.866874 -7.72519,9.579257 -1.70809,0.821394 -2.11584,1.182354 -4.07815,3.610192 -1.19916,1.483651 -2.33164,2.697549 -2.51661,2.697549 -0.18498,0 -1.32637,-1.198642 -2.53645,-2.663648 z"
       id="path2933"
       sodipodi:nodetypes="ssssssssss" />
    <g
       id="g1818"
       transform="translate(-55.119641,-69.4601)">
      <circle
         style="fill:#ffffff;fill-opacity:1;stroke:none;stroke-width:0.872384;stroke-linecap:round;stroke-linejoin:round;stroke-miterlimit:4;stroke-dasharray:none"
         id="path998"
         cx="188.54131"
         cy="104.21734"
         r="11.921079" />
    </g>
    <g
       id="g1010"
       transform="matrix(0.9404052,0,0,0.9404052,7.94234,2.1004463)">
      <g
         id="g6082"
         style="stroke:#000000;stroke-width:0.8;stroke-miterlimit:4;stroke-dasharray:none">
        <path
           style="fill:none;stroke:#000000;stroke-width:0.801;stroke-linecap:round;stroke-linejoin:round;stroke-miterlimit:4;stroke-dasharray:none;stroke-opacity:1"
           d="m 130.77748,35.569808 -0.0143,-2.507253"
           id="path4999" />
        <path
           style="fill:none;stroke:#000000;stroke-width:0.801;stroke-linecap:round;stroke-linejoin:miter;stroke-miterlimit:4;stroke-dasharray:none;stroke-opacity:1"
           d="m 131.97418,32.420978 c 0.56687,-0.467537 1.11067,-0.496245 1.75579,0.03963"
           id="path5001"
           sodipodi:nodetypes="cc" />
        <path
           style="fill:none;stroke:#000000;stroke-width:0.801;stroke-linecap:round;stroke-linejoin:round;stroke-miterlimit:4;stroke-dasharray:none;stroke-opacity:1"
           d="m 129.18413,37.011927 c 0.8558,0.900608 2.19665,0.958724 3.18652,-0.0098"
           id="path5003"
           sodipodi:nodetypes="cc" />
        <path
           style="fill:none;stroke:#000000;stroke-width:0.801;stroke-linecap:round;stroke-linejoin:miter;stroke-miterlimit:4;stroke-dasharray:none;stroke-opacity:1"
           d="m 127.77733,32.420978 c 0.56687,-0.467537 1.11067,-0.496245 1.75579,0.03963"
           id="path5659"
           sodipodi:nodetypes="cc" />
        <path
           style="display:inline;fill:none;stroke:#000000;stroke-width:0.8;stroke-linecap:round;stroke-linejoin:round;stroke-miterlimit:4;stroke-dasharray:none;stroke-opacity:1"
           d="m 135.62108,27.777448 c -2.06245,0.377966 -3.74348,0.899388 -8.76297,0.165203 -0.57103,0.03543 -0.93977,0.29739 -1.00807,0.928431 -0.11085,9.531479 2.79178,11.524397 4.84878,11.512495 3.33493,-0.31065 4.99726,-3.885762 5.03329,-10.635015"
           id="path4409"
           sodipodi:nodetypes="ccccc" />
      </g>
      <path
         style="fill:none;stroke:#000000;stroke-width:0.8;stroke-linecap:round;stroke-linejoin:round;stroke-miterlimit:4;stroke-dasharray:none;stroke-opacity:1"
         d="m 136.05059,38.176299 0.0135,-2.363165"
         id="path6084" />
      <path
         style="fill:none;stroke:#000000;stroke-width:0.8;stroke-linecap:round;stroke-linejoin:round;stroke-miterlimit:4;stroke-dasharray:none;stroke-opacity:1"
         d="m 137.59106,40.258657 c -0.98604,-0.675435 -1.86986,-0.657869 -2.93531,0"
         id="path6088"
         sodipodi:nodetypes="cc" />
      <path
         style="fill:none;stroke:#000000;stroke-width:0.8;stroke-linecap:round;stroke-linejoin:miter;stroke-miterlimit:4;stroke-dasharray:none;stroke-opacity:1"
         d="m 138.91769,35.311164 c -0.53429,-0.440668 -1.04684,-0.467726 -1.65489,0.03735"
         id="path6090"
         sodipodi:nodetypes="cc" />
      <path
         style="display:inline;fill:none;stroke:#000000;stroke-width:0.8;stroke-linecap:round;stroke-linejoin:round;stroke-miterlimit:4;stroke-dasharray:none;stroke-opacity:1"
         d="m 135.72523,31.336077 c 1.04575,-0.0056 2.3326,-0.101878 4.01949,-0.348614 0.53821,0.03339 0.88576,0.2803 0.95013,0.875076 0.10448,8.983719 -2.63134,10.862107 -4.57012,10.850889 -1.62858,-0.151703 -2.83397,-1.129371 -3.62223,-2.921164"
         id="path6092"
         sodipodi:nodetypes="ccccc" />
    </g>
    <g
       id="g18146">
      <path
         style="fill:none;stroke:#ffffff;stroke-width:0.8;stroke-linecap:round;stroke-linejoin:round;stroke-miterlimit:4;stroke-dasharray:none;stroke-opacity:1"
         d="m 164.31809,41.931021 h 10.23733"
         id="path13852" />
      <path
         style="fill:none;stroke:#ffffff;stroke-width:0.8;stroke-linecap:round;stroke-linejoin:round;stroke-miterlimit:4;stroke-dasharray:none;stroke-opacity:1"
         d="M 169.48315,41.933113 V 35.155499"
         id="path13854" />
      <path
         style="fill:none;stroke:#ffffff;stroke-width:0.8;stroke-linecap:round;stroke-linejoin:round;stroke-miterlimit:4;stroke-dasharray:none;stroke-opacity:1"
         d="m 169.51927,37.162573 h 2.41702 c 1.27585,-0.273888 1.24045,-1.857324 0,-2.45487 2.53279,-0.342051 2.13397,-2.039201 -0.0385,-2.384724 1.40912,-0.53683 1.55268,-2.035091 -0.69489,-2.416477 2.12772,-1.42906 0.56761,-2.833876 -0.58099,-2.446501 1.14278,-0.64637 0.7504,-2.390064 -1.15215,-2.346968"
         id="path13856"
         sodipodi:nodetypes="ccccccc" />
      <path
         style="fill:none;stroke:#ffffff;stroke-width:0.8;stroke-linecap:round;stroke-linejoin:round;stroke-miterlimit:4;stroke-dasharray:none;stroke-opacity:1"
         d="m 169.40194,37.162573 h -2.41702 c -1.27585,-0.273888 -1.24045,-1.857324 0,-2.45487 -2.53279,-0.342051 -2.13397,-2.039201 0.0385,-2.384724 -1.40912,-0.53683 -1.55268,-2.035091 0.69489,-2.416477 -2.12772,-1.42906 -0.45552,-2.74881 0.68725,-2.398646 -1.80155,-0.298196 -0.7662,-2.439556 1.0642,-2.394823"
         id="path15059"
         sodipodi:nodetypes="ccccccc" />
    </g>
  </g>
</svg>
