<?xml version="1.0" encoding="UTF-8" standalone="no"?>
<!-- Created with Inkscape (http://www.inkscape.org/) -->

<svg
   width="29.726835mm"
   height="34.582394mm"
   viewBox="0 0 29.726835 34.582394"
   version="1.1"
   id="svg6555"
   inkscape:version="1.1.2 (1:1.1+202202050950+0a00cf5339)"
   sodipodi:docname="university.svg"
   xmlns:inkscape="http://www.inkscape.org/namespaces/inkscape"
   xmlns:sodipodi="http://sodipodi.sourceforge.net/DTD/sodipodi-0.dtd"
   xmlns="http://www.w3.org/2000/svg"
   xmlns:svg="http://www.w3.org/2000/svg">
  <sodipodi:namedview
     id="namedview6557"
     pagecolor="#ffffff"
     bordercolor="#666666"
     borderopacity="1.0"
     inkscape:pageshadow="2"
     inkscape:pageopacity="0.0"
     inkscape:pagecheckerboard="0"
     inkscape:document-units="mm"
     showgrid="false"
     fit-margin-top="0"
     fit-margin-left="0"
     fit-margin-right="0"
     fit-margin-bottom="0"
     showguides="true"
     inkscape:guide-bbox="true"
     inkscape:zoom="4.0164221"
     inkscape:cx="8.2162679"
     inkscape:cy="107.43393"
     inkscape:window-width="3790"
     inkscape:window-height="2107"
     inkscape:window-x="0"
     inkscape:window-y="0"
     inkscape:window-maximized="1"
     inkscape:current-layer="layer1" />
  <defs
     id="defs6552" />
  <g
     inkscape:label="Layer 1"
     inkscape:groupmode="layer"
     id="layer1"
     transform="translate(-137.92203,-137.35749)">
    <path
       style="display:inline;fill:#1e64c8;fill-opacity:1;stroke:#ffffff;stroke-width:0.264583;stroke-opacity:1"
       d="m 150.27083,169.14394 c -1.93435,-2.34188 -2.44697,-2.79246 -4.24359,-3.72998 -5.13951,-2.68192 -8.00456,-7.46782 -7.97266,-13.31783 0.017,-3.11524 0.77753,-5.68127 2.36857,-7.99139 7.18915,-10.43832 22.84938,-8.08729 26.53991,3.98437 0.66477,2.17444 0.73815,5.67467 0.16417,7.83148 -1.07367,4.03448 -4.1643,7.86688 -7.72519,9.57926 -1.70809,0.82139 -2.11584,1.18235 -4.07815,3.61019 -1.19916,1.48365 -2.33164,2.69755 -2.51661,2.69755 -0.18498,0 -1.32637,-1.19864 -2.53645,-2.66365 z"
       id="path962"
       sodipodi:nodetypes="ssssssssss" />
    <g
       id="g1818"
       transform="translate(-35.769524,47.950017)">
      <circle
         style="fill:#ffffff;fill-opacity:1;stroke:none;stroke-width:0.872384;stroke-linecap:round;stroke-linejoin:round;stroke-miterlimit:4;stroke-dasharray:none"
         id="path998"
         cx="188.54131"
         cy="104.21734"
         r="11.921079" />
    </g>
    <g
       id="g10"
       transform="matrix(0.03185181,0,0,-0.03185181,137.8707,166.5266)"
       style="display:inline;fill:#000000;stroke-width:0.992126;stroke-miterlimit:4;stroke-dasharray:none">
      <g
         id="g1055"
         transform="matrix(2.2158939,0,0,2.1344672,-240.03482,-760.49312)"
         style="fill:#000000;stroke-width:0.456192;stroke-miterlimit:4;stroke-dasharray:none">
        <path
           d="m 249.883,605.496 h -11.621 v -80.953 h 11.621 v 80.953"
           style="fill:#000000;fill-opacity:1;fill-rule:nonzero;stroke:none;stroke-width:0.456192;stroke-miterlimit:4;stroke-dasharray:none"
           id="path12" />
        <path
           d="m 274.824,605.496 h -11.621 v -80.953 h 11.621 v 80.953"
           style="fill:#000000;fill-opacity:1;fill-rule:nonzero;stroke:none;stroke-width:0.456192;stroke-miterlimit:4;stroke-dasharray:none"
           id="path14" />
        <path
           d="m 299.77,605.496 h -11.622 v -80.953 h 11.622 v 80.953"
           style="fill:#000000;fill-opacity:1;fill-rule:nonzero;stroke:none;stroke-width:0.456192;stroke-miterlimit:4;stroke-dasharray:none"
           id="path16" />
        <path
           d="m 324.719,605.496 h -11.621 v -80.953 h 11.621 v 80.953"
           style="fill:#000000;fill-opacity:1;fill-rule:nonzero;stroke:none;stroke-width:0.456192;stroke-miterlimit:4;stroke-dasharray:none"
           id="path18" />
        <path
           d="m 349.664,605.496 h -11.621 v -80.953 h 11.621 v 80.953"
           style="fill:#000000;fill-opacity:1;fill-rule:nonzero;stroke:none;stroke-width:0.456192;stroke-miterlimit:4;stroke-dasharray:none"
           id="path20" />
        <path
           d="m 374.609,605.496 h -11.621 v -80.953 h 11.621 v 80.953"
           style="fill:#000000;fill-opacity:1;fill-rule:nonzero;stroke:none;stroke-width:0.456192;stroke-miterlimit:4;stroke-dasharray:none"
           id="path22" />
        <path
           d="m 399.555,605.496 h -11.621 v -80.953 h 11.621 v 80.953"
           style="fill:#000000;fill-opacity:1;fill-rule:nonzero;stroke:none;stroke-width:0.456192;stroke-miterlimit:4;stroke-dasharray:none"
           id="path24" />
        <path
           d="M 400.383,618.395 H 237.41 l -11.621,11.621 h 186.215 l -11.621,-11.621"
           style="fill:#000000;fill-opacity:1;fill-rule:nonzero;stroke:none;stroke-width:0.456192;stroke-miterlimit:4;stroke-dasharray:none"
           id="path26" />
        <path
           d="M 425.195,475.074 H 212.598 v 11.629 h 212.597 v -11.629"
           style="fill:#000000;fill-opacity:1;fill-rule:nonzero;stroke:none;stroke-width:0.456192;stroke-miterlimit:4;stroke-dasharray:none"
           id="path28" />
        <path
           d="M 412.727,500.016 H 225.066 v 11.629 h 187.661 v -11.629"
           style="fill:#000000;fill-opacity:1;fill-rule:nonzero;stroke:none;stroke-width:0.456192;stroke-miterlimit:4;stroke-dasharray:none"
           id="path30" />
        <path
           d="m 425.195,650.227 -106.3,37.644 -106.297,-37.644 v -12.434 l 106.297,37.641 106.3,-37.641 v 12.434"
           style="fill:#000000;fill-opacity:1;fill-rule:nonzero;stroke:none;stroke-width:0.456192;stroke-miterlimit:4;stroke-dasharray:none"
           id="path32" />
      </g>
    </g>
  </g>
</svg>
