<?xml version="1.0" encoding="UTF-8"?><svg id="Layer_1" xmlns="http://www.w3.org/2000/svg" viewBox="0 0 283.46 283.46"><defs><style>.cls-1{fill:#1e1e1c;}</style></defs><path class="cls-1" d="M246.46,225.73l-61.05-61.05c-1.9-1.9-2.17-4.84-.74-7.11,19.54-30.76,15.9-71.99-10.94-98.84-15.53-15.53-35.89-23.3-56.25-23.3s-41.66,8.13-57.32,24.39c-29.51,30.63-29.51,79.7,0,110.33,15.66,16.25,36.49,24.39,57.32,24.39,14.86,0,29.72-4.15,42.7-12.43,2.22-1.42,5.14-1.06,7.01,.8l61.35,61.35c5.09,5.09,13.38,5.03,18.39-.18,4.92-5.11,4.54-13.33-.48-18.35ZM79.63,152.84c-10.11-10.11-15.68-23.56-15.68-37.86s5.57-27.75,15.68-37.86c10.11-10.11,23.56-15.68,37.86-15.68h0c14.3,0,27.75,5.56,37.86,15.67,20.88,20.88,20.88,54.85,0,75.73-10.11,10.11-23.56,15.68-37.86,15.68s-27.75-5.57-37.86-15.68Z"/></svg>