<?xml version="1.0" encoding="UTF-8"?><svg id="Layer_1" xmlns="http://www.w3.org/2000/svg" viewBox="0 0 283.46 283.46"><defs><style>.cls-1{fill:#1d1d1b;}</style></defs><path class="cls-1" d="M244.88,84.67l-96.92-47.71c-1.96-.97-4.1-1.45-6.23-1.45s-4.27,.48-6.23,1.45L38.58,84.67c-4.2,2.07-4.2,8.06,0,10.12l96.92,47.71c1.96,.97,4.1,1.45,6.23,1.45s4.27-.48,6.23-1.45l96.92-47.71c4.2-2.07,4.2-8.06,0-10.12Z"/><path class="cls-1" d="M38.58,146.72l96.92,47.71c1.96,.97,4.1,1.45,6.23,1.45s4.27-.48,6.23-1.45l96.92-47.71c4.2-2.07,4.2-8.06,0-10.12l-29.77-14.65c-1.58-.78-3.43-.78-5.01,0l-58.17,28.64c-3.16,1.55-6.69,2.38-10.2,2.38s-7.05-.82-10.2-2.38l-58.17-28.64c-1.58-.78-3.43-.78-5.01,0l-29.77,14.65c-4.2,2.07-4.2,8.06,0,10.12Z"/><path class="cls-1" d="M244.88,188.67l-29.92-14.73c-1.58-.78-3.43-.78-5.01,0l-58.02,28.56c-3.16,1.55-6.69,2.38-10.2,2.38s-7.05-.82-10.2-2.38l-58.02-28.56c-1.58-.78-3.43-.78-5.01,0l-29.92,14.73c-4.2,2.07-4.2,8.06,0,10.12l96.92,47.71c1.96,.97,4.1,1.45,6.23,1.45s4.27-.48,6.23-1.45l96.92-47.71c4.2-2.07,4.2-8.06,0-10.12Z"/></svg>