<?xml version="1.0" encoding="UTF-8"?><svg id="Layer_3" xmlns="http://www.w3.org/2000/svg" viewBox="0 0 283.46 283.46"><defs><style>.cls-1{fill:#1e1e1c;}</style></defs><path class="cls-1" d="M234.74,128.85h-75.88c-2.35,0-4.25-1.9-4.25-4.25V48.72c0-6.96-5.34-12.97-12.3-13.28-7.38-.33-13.47,5.56-13.47,12.87V124.6c0,2.35-1.9,4.25-4.25,4.25H48.72c-6.96,0-12.97,5.34-13.27,12.29-.33,7.38,5.56,13.47,12.87,13.47H124.6c2.35,0,4.25,1.9,4.25,4.25v76.28c0,7.31,6.09,13.2,13.47,12.87,6.95-.31,12.3-6.32,12.3-13.28v-75.88c0-2.35,1.9-4.25,4.25-4.25h76.28c7.31,0,13.2-6.09,12.87-13.47-.31-6.95-6.32-12.29-13.28-12.29Z"/></svg>